<?xml version="1.0" encoding="UTF-8" standalone="no"?>
<!-- Created with Inkscape (http://www.inkscape.org/) -->

<svg
   width="1000"
   height="1000"
   viewBox="0 0 264.58333 264.58333"
   version="1.1"
   id="svg5"
   xml:space="preserve"
   sodipodi:docname="icon.svg"
   inkscape:version="1.2.2 (b0a8486541, 2022-12-01)"
   inkscape:export-filename="icon-256.png"
   inkscape:export-xdpi="24.576"
   inkscape:export-ydpi="24.576"
   xmlns:inkscape="http://www.inkscape.org/namespaces/inkscape"
   xmlns:sodipodi="http://sodipodi.sourceforge.net/DTD/sodipodi-0.dtd"
   xmlns="http://www.w3.org/2000/svg"
   xmlns:svg="http://www.w3.org/2000/svg"><sodipodi:namedview
     id="namedview7"
     pagecolor="#505050"
     bordercolor="#eeeeee"
     borderopacity="1"
     inkscape:showpageshadow="0"
     inkscape:pageopacity="0"
     inkscape:pagecheckerboard="0"
     inkscape:deskcolor="#505050"
     inkscape:document-units="mm"
     showgrid="false"
     inkscape:zoom="0.46803664"
     inkscape:cx="251.04872"
     inkscape:cy="432.65844"
     inkscape:window-width="1920"
     inkscape:window-height="1022"
     inkscape:window-x="0"
     inkscape:window-y="0"
     inkscape:window-maximized="1"
     inkscape:current-layer="g444" /><defs
     id="defs2"><style
       id="style132">.a{fill:#d53;}.b{fill:#fff;}.c{fill:#ddd;}.d{fill:#fc0;}.e{fill:#6b5;}.f{fill:#4a4;}.g{fill:#148;}</style></defs><g
     inkscape:label="Layer 1"
     inkscape:groupmode="layer"
     id="layer1"><path
       class="a"
       d="M 259.52022,132.29167 A 127.22855,127.22855 0 1 0 132.29167,259.52022 127.22855,127.22855 0 0 0 259.52022,132.29167 Z"
       id="path138"
       style="stroke-width:2.07078" /><path
       class="b"
       d="m 241.8979,132.29167 a 109.58553,109.58553 0 1 0 -32.09704,77.50919 109.25421,109.25421 0 0 0 32.09704,-77.50919 z M 214.72931,49.874734 a 116.56405,116.56405 0 1 1 -82.43764,-34.147116 116.21202,116.21202 0 0 1 82.43764,34.147116 z"
       id="path140"
       style="stroke-width:2.07078" /><g
       id="g444"
       transform="matrix(0.72086481,0,0,0.72086481,38.511543,7.408041)"
       inkscape:label="duck"><path
         class="c"
         d="m 94.603522,67.497048 c -35.348167,8.241693 -24.935684,43.789572 -21.18591,64.066832 7.713243,41.7101 9.105626,60.78535 23.109491,85.70858 14.143097,25.17102 38.614027,15.61486 38.614027,15.61486 L 94.603522,67.434925 Z M 86.320413,46.29229 h -9.401329 l 13.045897,4.721372 c 0,0 -12.963066,0 -12.963066,8.283108 28.203985,-1.221758 41.146345,5.818884 41.146345,5.818884 L 86.341121,46.271582 Z"
         id="path142"
         style="stroke-width:2.07078"
         sodipodi:nodetypes="csscccccccccc" /><path
         class="b"
         d="m 128.56046,234.2032 c 9.43601,-0.35998 20.21758,-6.93954 19.79502,-20.26493 -0.55936,-17.63929 -14.90418,-26.58628 -14.90418,-43.95846 0,-55.35187 36.5078,-8.28311 36.5078,-51.76943 0,-43.486319 -36.5078,-54.254361 -36.5078,-54.254361 C 115.78757,41.591625 81.681872,46.29229 81.681872,46.29229 l 8.283109,4.721372 c 0,0 -8.283109,2.339978 -10.60238,4.700664 -2.31927,2.360686 22.385099,-3.520321 32.987479,5.901715 -43.672689,3.499613 -36.611339,38.868489 -36.611339,38.868489 0,0 10.143523,82.49175 18.426878,103.49934 9.629391,23.44527 19.144461,30.80113 34.394841,30.21933 z"
         id="path144"
         style="stroke-width:2.07078"
         sodipodi:nodetypes="assscccsccca" /><path
         class="d"
         d="m 161.73812,131.11132 44.7702,-11.78272 c 40.04883,5.83959 -34.16782,28.28682 -38.86849,27.10647 -35.34816,-5.90171 -24.84932,23.54474 17.66373,14.12271 42.51306,-9.42204 10.60238,23.56544 -28.26611,10.60237 -55.37258,-15.30304 -25.92613,-42.40951 4.70067,-40.04883 z"
         id="path146"
         style="stroke-width:2.07078" /><path
         class="e"
         d="m 144.42129,207.67995 2.36069,-3.52032 c 25.92613,9.42204 27.10647,12.94236 25.92613,-10.60238 -1.18035,-23.54474 0,-23.56544 -27.10648,-3.54103 0,-5.88101 -15.30304,-3.54103 -17.66373,0 -24.74578,-10.60238 -27.10647,-14.14341 -25.92613,2.36069 2.36069,34.16782 1.18035,28.26611 24.74579,16.56622 l 17.66373,-1.18035 z m 0,0 z"
         id="path148"
         style="stroke-width:2.07078" /><path
         class="f"
         d="m 125.51509,194.73759 v 14.1227 c 1.18035,2.36069 20.02442,2.36069 20.02442,-2.36068 0,-4.72137 -9.42204,3.54103 -15.30304,1.18034 -5.88101,-2.36068 -2.3814,-15.30304 -2.3814,-15.30304 l -2.36068,2.36068 z m 0,0 z"
         id="path150"
         style="stroke-width:2.07078" /><path
         class="g"
         d="M 105.2059,94.603522 C 99.304186,87.521464 84.001142,93.423179 87.521464,102.88663 88.701807,98.165258 96.9435,91.103908 105.2059,94.603522 Z m 37.68815,0 c 1.18034,-7.082058 12.96306,-8.283109 16.56621,-1.180343 a 16.566218,16.566218 0 0 0 -16.56621,1.180343 z m -38.86849,18.844068 a 2.360686,2.360686 0 1 1 0,1.18035 z m -9.422038,4.70067 a 8.2831088,8.2831088 0 1 0 0,-1.18034 z m 61.253588,-8.28311 a 2.360686,2.360686 0 1 1 0,1.18034 z m -7.08206,4.76279 a 7.082058,7.082058 0 1 0 0,-1.18035 z m 0,0 z"
         id="path152"
         style="stroke-width:2.07078" /><path
         id="path1010"
         style="opacity:1;fill:#dddddd;stroke-width:0.646531;stroke-linecap:round;stroke-linejoin:round"
         d="m 124.94333,219.69463 c -7.23865,-6.68625 -9.6817,-16.49613 -4.01845,-24.00298 5.66326,-7.50685 16.82895,-10.18596 24.06761,-3.49971 7.23866,6.68626 9.05857,19.3955 3.7358,27.14749 -4.42666,6.4469 -16.54631,7.04146 -23.78496,0.3552 z"
         sodipodi:nodetypes="sssss"
         transform="matrix(1.3872227,0,0,1.3872227,-53.424085,-10.276602)"
         inkscape:label="path101" /><ellipse
         style="opacity:1;fill:#ffffff;fill-opacity:1;stroke-width:0.648134;stroke-linecap:round;stroke-linejoin:round"
         id="ellipse2205"
         cx="58.483395"
         cy="-235.26668"
         rx="17.026489"
         ry="17.842505"
         transform="matrix(-0.83545732,1.1074285,-1.0190256,-0.94126168,-53.424085,-10.276602)"
         inkscape:label="path111" /></g></g></svg>
