<?xml version="1.0" encoding="UTF-8" standalone="no"?>
<!-- Created with Inkscape (http://www.inkscape.org/) -->

<svg
   width="978.81885"
   height="296.22556"
   viewBox="0 0 258.97915 78.376343"
   version="1.1"
   id="svg5"
   xml:space="preserve"
   sodipodi:docname="firefox-banner.svg"
   inkscape:version="1.4 (e7c3feb100, 2024-10-09)"
   inkscape:export-filename="promo.png"
   inkscape:export-xdpi="98.077393"
   inkscape:export-ydpi="98.077393"
   xmlns:inkscape="http://www.inkscape.org/namespaces/inkscape"
   xmlns:sodipodi="http://sodipodi.sourceforge.net/DTD/sodipodi-0.dtd"
   xmlns:xlink="http://www.w3.org/1999/xlink"
   xmlns="http://www.w3.org/2000/svg"
   xmlns:svg="http://www.w3.org/2000/svg"><sodipodi:namedview
     id="namedview7"
     pagecolor="#505050"
     bordercolor="#eeeeee"
     borderopacity="1"
     inkscape:showpageshadow="0"
     inkscape:pageopacity="0"
     inkscape:pagecheckerboard="0"
     inkscape:deskcolor="#505050"
     inkscape:document-units="mm"
     showgrid="false"
     inkscape:zoom="0.74215909"
     inkscape:cx="485.0712"
     inkscape:cy="248.59899"
     inkscape:window-width="1707"
     inkscape:window-height="1012"
     inkscape:window-x="0"
     inkscape:window-y="0"
     inkscape:window-maximized="1"
     inkscape:current-layer="text1234" /><defs
     id="defs2"><linearGradient
       inkscape:collect="always"
       id="linearGradient502"><stop
         style="stop-color:#190e2d;stop-opacity:1"
         offset="0"
         id="stop498" /><stop
         style="stop-color:#2b184f;stop-opacity:1"
         offset="1"
         id="stop500" /></linearGradient><style
       id="style132">.a{fill:#d53;}.b{fill:#fff;}.c{fill:#ddd;}.d{fill:#fc0;}.e{fill:#6b5;}.f{fill:#4a4;}.g{fill:#148;}</style><linearGradient
       inkscape:collect="always"
       xlink:href="#linearGradient502"
       id="linearGradient504"
       x1="2.0345053e-05"
       y1="39.6875"
       x2="264.58334"
       y2="39.6875"
       gradientUnits="userSpaceOnUse"
       gradientTransform="matrix(0.97513339,0,0,0.97513339,3.2896461,0.98689374)" /><radialGradient
       id="a"
       cx="-1186.91"
       cy="-517.67603"
       r="90.779999"
       gradientTransform="matrix(0.72462954,0,0,0.72462954,932.38855,398.48311)"
       gradientUnits="userSpaceOnUse"><stop
         offset="0"
         stop-color="#fff36e"
         id="stop1289" /><stop
         offset=".5"
         stop-color="#fc4055"
         id="stop1291" /><stop
         offset="1"
         stop-color="#e31587"
         id="stop1293" /></radialGradient><radialGradient
       id="b"
       cx="-1251.812"
       cy="-513.92102"
       r="53.726002"
       gradientTransform="matrix(0.72462954,0,0,0.72462954,932.38855,398.48311)"
       gradientUnits="userSpaceOnUse"><stop
         offset=".001"
         stop-color="#c60084"
         id="stop1296" /><stop
         offset="1"
         stop-color="#fc4055"
         stop-opacity="0"
         id="stop1298" /></radialGradient><radialGradient
       id="c"
       cx="-1179.15"
       cy="-522.84198"
       r="106.599"
       gradientTransform="matrix(0.72462954,0,0,0.72462954,932.38855,398.48311)"
       gradientUnits="userSpaceOnUse"><stop
         offset="0"
         stop-color="#ffde67"
         stop-opacity=".6"
         id="stop1301" /><stop
         offset=".093"
         stop-color="#ffd966"
         stop-opacity=".581"
         id="stop1303" /><stop
         offset=".203"
         stop-color="#ffca65"
         stop-opacity=".525"
         id="stop1305" /><stop
         offset=".321"
         stop-color="#feb262"
         stop-opacity=".432"
         id="stop1307" /><stop
         offset=".446"
         stop-color="#fe8f5e"
         stop-opacity=".302"
         id="stop1309" /><stop
         offset=".573"
         stop-color="#fd6459"
         stop-opacity=".137"
         id="stop1311" /><stop
         offset=".664"
         stop-color="#fc4055"
         stop-opacity="0"
         id="stop1313" /></radialGradient><radialGradient
       id="d"
       cx="42.285"
       cy="44.499001"
       r="137.521"
       gradientTransform="matrix(0.72462954,0,0,0.72462954,20.485021,11.417871)"
       gradientUnits="userSpaceOnUse"><stop
         offset=".153"
         stop-color="#810220"
         id="stop1316" /><stop
         offset=".167"
         stop-color="#920b27"
         stop-opacity=".861"
         id="stop1318" /><stop
         offset=".216"
         stop-color="#cb2740"
         stop-opacity=".398"
         id="stop1320" /><stop
         offset=".253"
         stop-color="#ef394f"
         stop-opacity=".11"
         id="stop1322" /><stop
         offset=".272"
         stop-color="#fc4055"
         stop-opacity="0"
         id="stop1324" /></radialGradient><radialGradient
       id="e"
       cx="31.878"
       cy="42.77"
       r="137.521"
       gradientTransform="matrix(0.72462954,0,0,0.72462954,20.485021,11.417871)"
       gradientUnits="userSpaceOnUse"><stop
         offset=".113"
         stop-color="#810220"
         id="stop1327" /><stop
         offset=".133"
         stop-color="#920b27"
         stop-opacity=".861"
         id="stop1329" /><stop
         offset=".204"
         stop-color="#cb2740"
         stop-opacity=".398"
         id="stop1331" /><stop
         offset=".257"
         stop-color="#ef394f"
         stop-opacity=".11"
         id="stop1333" /><stop
         offset=".284"
         stop-color="#fc4055"
         stop-opacity="0"
         id="stop1335" /></radialGradient><linearGradient
       id="f"
       x1="-1212.61"
       y1="-525.10303"
       x2="-1189.052"
       y2="-484.29901"
       gradientTransform="matrix(0.72462954,0,0,0.72462954,932.38855,397.63456)"
       gradientUnits="userSpaceOnUse"><stop
         offset="0"
         stop-color="#ffbd4f"
         id="stop1338" /><stop
         offset=".508"
         stop-color="#ff9640"
         stop-opacity="0"
         id="stop1340" /></linearGradient><radialGradient
       id="g"
       cx="-1255.933"
       cy="-77.394997"
       r="88.862999"
       gradientTransform="matrix(0.69491973,0,0,0.69636899,943.5877,74.143977)"
       gradientUnits="userSpaceOnUse"><stop
         offset="0"
         stop-color="#ff9640"
         id="stop1343" /><stop
         offset=".8"
         stop-color="#fc4055"
         id="stop1345" /></radialGradient><radialGradient
       id="h"
       cx="-1255.933"
       cy="-77.394997"
       r="88.862999"
       gradientTransform="matrix(0.69491973,0,0,0.69636899,943.5877,74.143977)"
       gradientUnits="userSpaceOnUse"><stop
         offset=".084"
         stop-color="#ffde67"
         id="stop1348" /><stop
         offset=".147"
         stop-color="#ffdc66"
         stop-opacity=".968"
         id="stop1350" /><stop
         offset=".246"
         stop-color="#ffd562"
         stop-opacity=".879"
         id="stop1352" /><stop
         offset=".369"
         stop-color="#ffcb5d"
         stop-opacity=".734"
         id="stop1354" /><stop
         offset=".511"
         stop-color="#ffbc55"
         stop-opacity=".533"
         id="stop1356" /><stop
         offset=".667"
         stop-color="#ffaa4b"
         stop-opacity=".28"
         id="stop1358" /><stop
         offset=".822"
         stop-color="#ff9640"
         stop-opacity="0"
         id="stop1360" /></radialGradient><radialGradient
       id="i"
       cx="49.941002"
       cy="38.653999"
       r="41.790001"
       gradientTransform="matrix(0.1789835,0.70361527,-0.73260048,0.18767905,76.050337,-2.8979093)"
       gradientUnits="userSpaceOnUse"><stop
         offset=".363"
         stop-color="#fc4055"
         id="stop1363" /><stop
         offset=".443"
         stop-color="#fd604d"
         stop-opacity=".633"
         id="stop1365" /><stop
         offset=".545"
         stop-color="#fe8644"
         stop-opacity=".181"
         id="stop1367" /><stop
         offset=".59"
         stop-color="#ff9640"
         stop-opacity="0"
         id="stop1369" /></radialGradient><radialGradient
       id="j"
       cx="42.737"
       cy="42.193001"
       r="41.790001"
       gradientTransform="matrix(0.72462954,0,0,0.72462954,20.485021,11.417871)"
       gradientUnits="userSpaceOnUse"><stop
         offset=".216"
         stop-color="#fc4055"
         stop-opacity=".8"
         id="stop1372" /><stop
         offset=".267"
         stop-color="#fd5251"
         stop-opacity=".633"
         id="stop1374" /><stop
         offset=".41"
         stop-color="#fe8345"
         stop-opacity=".181"
         id="stop1376" /><stop
         offset=".474"
         stop-color="#ff9640"
         stop-opacity="0"
         id="stop1378" /></radialGradient><radialGradient
       id="k"
       cx="-1238.198"
       cy="-87.432999"
       r="150.19501"
       gradientTransform="matrix(0.69491973,0,0,0.69636899,943.5877,74.143977)"
       gradientUnits="userSpaceOnUse"><stop
         offset=".054"
         stop-color="#fff36e"
         id="stop1381" /><stop
         offset=".457"
         stop-color="#ff9640"
         id="stop1383" /><stop
         offset=".639"
         stop-color="#ff9640"
         id="stop1385" /></radialGradient><linearGradient
       id="l"
       x1="59.051998"
       y1="7.0830002"
       x2="18.155001"
       y2="77.919998"
       gradientUnits="userSpaceOnUse"
       gradientTransform="matrix(0.72462954,0,0,0.72462954,20.485021,11.48671)"><stop
         offset="0"
         stop-color="#fff36e"
         stop-opacity=".8"
         id="stop1388" /><stop
         offset=".094"
         stop-color="#fff36e"
         stop-opacity=".699"
         id="stop1390" /><stop
         offset=".752"
         stop-color="#fff36e"
         stop-opacity="0"
         id="stop1392" /></linearGradient><linearGradient
       id="m"
       x1="40.584999"
       y1="-0.67000002"
       x2="62.299999"
       y2="62.202999"
       gradientUnits="userSpaceOnUse"
       gradientTransform="matrix(0.72462954,0,0,0.72462954,20.485021,11.48671)"><stop
         offset="0"
         stop-color="#b833e1"
         id="stop1395" /><stop
         offset=".371"
         stop-color="#9059ff"
         id="stop1397" /><stop
         offset=".614"
         stop-color="#5b6df8"
         id="stop1399" /><stop
         offset="1"
         stop-color="#0090ed"
         id="stop1401" /></linearGradient><linearGradient
       id="n"
       x1="-1230.731"
       y1="-532.56598"
       x2="-1190.37"
       y2="-492.20499"
       gradientTransform="matrix(0.72462954,0,0,0.72462954,932.38855,397.63456)"
       gradientUnits="userSpaceOnUse"><stop
         offset=".805"
         stop-color="#722291"
         stop-opacity="0"
         id="stop1404" /><stop
         offset="1"
         stop-color="#592acb"
         stop-opacity=".5"
         id="stop1406" /></linearGradient><linearGradient
       id="a-3"
       x1="70.79"
       x2="6.447"
       y1="12.39"
       y2="74.47"
       gradientTransform="translate(-1.3,-0.004086)"
       gradientUnits="userSpaceOnUse"><stop
         stop-color="#fff44f"
         offset=".048"
         id="stop1" /><stop
         stop-color="#ffe847"
         offset=".111"
         id="stop2" /><stop
         stop-color="#ffc830"
         offset=".225"
         id="stop3" /><stop
         stop-color="#ff980e"
         offset=".368"
         id="stop4" /><stop
         stop-color="#ff8b16"
         offset=".401"
         id="stop5" /><stop
         stop-color="#ff672a"
         offset=".462"
         id="stop6" /><stop
         stop-color="#ff3647"
         offset=".534"
         id="stop7" /><stop
         stop-color="#e31587"
         offset=".705"
         id="stop8" /></linearGradient><radialGradient
       id="b-6"
       cx="-7907"
       cy="-8515"
       r="80.8"
       gradientTransform="translate(7974,8524)"
       gradientUnits="userSpaceOnUse"><stop
         stop-color="#ffbd4f"
         offset=".129"
         id="stop9" /><stop
         stop-color="#ffac31"
         offset=".186"
         id="stop10" /><stop
         stop-color="#ff9d17"
         offset=".247"
         id="stop11" /><stop
         stop-color="#ff980e"
         offset=".283"
         id="stop12" /><stop
         stop-color="#ff563b"
         offset=".403"
         id="stop13" /><stop
         stop-color="#ff3750"
         offset=".467"
         id="stop14" /><stop
         stop-color="#f5156c"
         offset=".71"
         id="stop15" /><stop
         stop-color="#eb0878"
         offset=".782"
         id="stop16" /><stop
         stop-color="#e50080"
         offset=".86"
         id="stop17" /></radialGradient><radialGradient
       id="c-7"
       cx="-7937"
       cy="-8482"
       r="80.8"
       gradientTransform="translate(7974,8524)"
       gradientUnits="userSpaceOnUse"><stop
         stop-color="#960e18"
         offset=".3"
         id="stop18" /><stop
         stop-color="#b11927"
         stop-opacity=".74"
         offset=".351"
         id="stop19" /><stop
         stop-color="#db293d"
         stop-opacity=".343"
         offset=".435"
         id="stop20" /><stop
         stop-color="#f5334b"
         stop-opacity=".094"
         offset=".497"
         id="stop21" /><stop
         stop-color="#ff3750"
         stop-opacity="0"
         offset=".53"
         id="stop22" /></radialGradient><radialGradient
       id="d-5"
       cx="-7927"
       cy="-8533"
       r="58.53"
       gradientTransform="translate(7974,8524)"
       gradientUnits="userSpaceOnUse"><stop
         stop-color="#fff44f"
         offset=".132"
         id="stop23" /><stop
         stop-color="#ffdc3e"
         offset=".252"
         id="stop24" /><stop
         stop-color="#ff9d12"
         offset=".506"
         id="stop25" /><stop
         stop-color="#ff980e"
         offset=".526"
         id="stop26" /></radialGradient><radialGradient
       id="e-3"
       cx="-7946"
       cy="-8461"
       r="38.47"
       gradientTransform="translate(7974,8524)"
       gradientUnits="userSpaceOnUse"><stop
         stop-color="#3a8ee6"
         offset=".353"
         id="stop27" /><stop
         stop-color="#5c79f0"
         offset=".472"
         id="stop28" /><stop
         stop-color="#9059ff"
         offset=".669"
         id="stop29" /><stop
         stop-color="#c139e6"
         offset="1"
         id="stop30" /></radialGradient><radialGradient
       id="f-5"
       cx="-7936"
       cy="-8492"
       r="20.4"
       gradientTransform="matrix(0.972,-0.235,0.275,1.138,10090,7834)"
       gradientUnits="userSpaceOnUse"><stop
         stop-color="#9059ff"
         stop-opacity="0"
         offset=".206"
         id="stop31" /><stop
         stop-color="#8c4ff3"
         stop-opacity=".064"
         offset=".278"
         id="stop32" /><stop
         stop-color="#7716a8"
         stop-opacity=".45"
         offset=".747"
         id="stop33" /><stop
         stop-color="#6e008b"
         stop-opacity=".6"
         offset=".975"
         id="stop34" /></radialGradient><radialGradient
       id="g-6"
       cx="-7938"
       cy="-8518"
       r="27.68"
       gradientTransform="translate(7974,8524)"
       gradientUnits="userSpaceOnUse"><stop
         stop-color="#ffe226"
         offset="0"
         id="stop35" /><stop
         stop-color="#ffdb27"
         offset=".121"
         id="stop36" /><stop
         stop-color="#ffc82a"
         offset=".295"
         id="stop37" /><stop
         stop-color="#ffa930"
         offset=".502"
         id="stop38" /><stop
         stop-color="#ff7e37"
         offset=".732"
         id="stop39" /><stop
         stop-color="#ff7139"
         offset=".792"
         id="stop40" /></radialGradient><radialGradient
       id="h-2"
       cx="-7916"
       cy="-8536"
       r="118.1"
       gradientTransform="translate(7974,8524)"
       gradientUnits="userSpaceOnUse"><stop
         stop-color="#fff44f"
         offset=".113"
         id="stop41" /><stop
         stop-color="#ff980e"
         offset=".456"
         id="stop42" /><stop
         stop-color="#ff5634"
         offset=".622"
         id="stop43" /><stop
         stop-color="#ff3647"
         offset=".716"
         id="stop44" /><stop
         stop-color="#e31587"
         offset=".904"
         id="stop45" /></radialGradient><radialGradient
       id="i-9"
       cx="-7927"
       cy="-8523"
       r="86.5"
       gradientTransform="matrix(0.105,0.995,-0.653,0.069,-4685,8470)"
       gradientUnits="userSpaceOnUse"><stop
         stop-color="#fff44f"
         offset="0"
         id="stop46" /><stop
         stop-color="#ffe847"
         offset=".06"
         id="stop47" /><stop
         stop-color="#ffc830"
         offset=".168"
         id="stop48" /><stop
         stop-color="#ff980e"
         offset=".304"
         id="stop49" /><stop
         stop-color="#ff8b16"
         offset=".356"
         id="stop50" /><stop
         stop-color="#ff672a"
         offset=".455"
         id="stop51" /><stop
         stop-color="#ff3647"
         offset=".57"
         id="stop52" /><stop
         stop-color="#e31587"
         offset=".737"
         id="stop53" /></radialGradient><radialGradient
       id="j-1"
       cx="-7938"
       cy="-8508"
       r="73.72"
       gradientTransform="translate(7974,8524)"
       gradientUnits="userSpaceOnUse"><stop
         stop-color="#fff44f"
         offset=".137"
         id="stop54" /><stop
         stop-color="#ff980e"
         offset=".48"
         id="stop55" /><stop
         stop-color="#ff5634"
         offset=".592"
         id="stop56" /><stop
         stop-color="#ff3647"
         offset=".655"
         id="stop57" /><stop
         stop-color="#e31587"
         offset=".904"
         id="stop58" /></radialGradient><radialGradient
       id="k-2"
       cx="-7919"
       cy="-8504"
       r="80.69"
       gradientTransform="translate(7974,8524)"
       gradientUnits="userSpaceOnUse"><stop
         stop-color="#fff44f"
         offset=".094"
         id="stop59" /><stop
         stop-color="#ffe141"
         offset=".231"
         id="stop60" /><stop
         stop-color="#ffaf1e"
         offset=".509"
         id="stop61" /><stop
         stop-color="#ff980e"
         offset=".626"
         id="stop62" /></radialGradient><linearGradient
       id="l-7"
       x1="70.01"
       x2="15.27"
       y1="12.06"
       y2="66.81"
       gradientTransform="translate(-1.3,-0.004086)"
       gradientUnits="userSpaceOnUse"><stop
         stop-color="#fff44f"
         stop-opacity=".8"
         offset=".167"
         id="stop63" /><stop
         stop-color="#fff44f"
         stop-opacity=".634"
         offset=".266"
         id="stop64" /><stop
         stop-color="#fff44f"
         stop-opacity=".217"
         offset=".489"
         id="stop65" /><stop
         stop-color="#fff44f"
         stop-opacity="0"
         offset=".6"
         id="stop66" /></linearGradient></defs><g
     inkscape:label="Layer 1"
     inkscape:groupmode="layer"
     id="layer1"
     transform="translate(-2.8020994,-0.49932721)"><path
       id="rect353"
       style="fill:url(#linearGradient504);stroke:#ffffff;stroke-width:0.975133;stroke-linecap:round;stroke-linejoin:round;stroke-opacity:1"
       d="M 18.289666,0.98689371 H 246.29369 c 8.31,0 15,6.68999999 15,15.00000029 v 47.401214 c 0,8.31 -6.69,15 -15,15 H 18.289666 c -8.3100001,0 -15.0000001,-6.69 -15.0000001,-15 V 15.986894 c 0,-8.3100003 6.69,-15.00000029 15.0000001,-15.00000029 z"
       inkscape:label="bg" /><g
       id="text1234"
       style="font-size:19.4656px;line-height:1.25;fill:#ffffff;stroke-width:0.486642"
       inkscape:label="text"
       transform="scale(1.0235478,0.97699395)"
       aria-label="Available on&#10;Firefox ADD-ONS"><path
         style="font-weight:300;font-family:Roboto;-inkscape-font-specification:'Roboto Light'"
         d="m 98.913988,22.309258 -4.790362,13.011917 h -1.2166 L 98.134604,21.48235 h 0.855422 z M 103.26714,35.321175 98.476773,22.309258 98.41024,21.48235 h 0.845917 l 5.237083,13.838825 z m -0.84592,-4.88541 v 1.007497 h -7.35663 v -1.007497 z m 6.40616,3.782866 3.29812,-9.181528 h 1.16908 l -3.8494,10.284072 h -0.82691 z m -2.98447,-9.181528 3.34565,9.210042 0.17108,1.07403 h -0.83641 l -3.85891,-10.284072 z m 15.4261,8.440162 V 28.17365 q 0,-0.731861 -0.30415,-1.264123 -0.30415,-0.532263 -0.89344,-0.817403 -0.58929,-0.285141 -1.45421,-0.285141 -0.7984,0 -1.42571,0.285141 -0.6178,0.275635 -0.97898,0.75087 -0.35167,0.465729 -0.35167,1.036011 l -1.13106,-0.0095 q 0,-0.579786 0.27563,-1.121553 0.28515,-0.541767 0.8079,-0.969478 0.52276,-0.427711 1.24512,-0.674833 0.73186,-0.256626 1.61579,-0.256626 1.09304,0 1.92946,0.370682 0.84591,0.370683 1.32115,1.112049 0.48474,0.741365 0.48474,1.862918 v 4.970952 q 0,0.532262 0.076,1.102543 0.0856,0.570282 0.23762,0.93146 v 0.123561 h -1.2166 q -0.11406,-0.342169 -0.18059,-0.855422 -0.057,-0.522758 -0.057,-0.988488 z m 0.26613,-4.144043 0.019,0.874431 h -2.22409 q -0.87443,0 -1.56828,0.16158 -0.68433,0.152075 -1.15957,0.44672 -0.47523,0.294645 -0.73186,0.722356 -0.24712,0.418206 -0.24712,0.950469 0,0.551272 0.27564,1.007497 0.27563,0.456225 0.79839,0.722356 0.52276,0.266131 1.23561,0.266131 0.94096,0 1.66332,-0.342169 0.73186,-0.351673 1.20709,-0.921954 0.47524,-0.570281 0.63682,-1.245114 l 0.49424,0.655823 q -0.12356,0.46573 -0.45622,0.969478 -0.32316,0.503749 -0.84592,0.940964 -0.51325,0.427711 -1.22611,0.703347 -0.70334,0.266131 -1.60629,0.266131 -0.99799,0 -1.74886,-0.380187 -0.75087,-0.389692 -1.15957,-1.045516 -0.4087,-0.665328 -0.4087,-1.50174 0,-0.750871 0.32316,-1.349666 0.32316,-0.6083 0.93146,-1.026506 0.6083,-0.427711 1.47322,-0.646319 0.87443,-0.228112 1.95797,-0.228112 z m 5.18956,-4.296119 v 10.284072 h -1.14056 V 25.037103 Z m -1.34016,-2.974967 q 0,-0.323159 0.1996,-0.541767 0.2091,-0.228112 0.57979,-0.228112 0.36117,0 0.57028,0.228112 0.21861,0.218608 0.21861,0.541767 0,0.313655 -0.21861,0.541767 -0.20911,0.218608 -0.57028,0.218608 -0.37069,0 -0.57979,-0.218608 -0.1996,-0.228112 -0.1996,-0.541767 z m 5.71232,-1.340161 v 14.5992 h -1.14056 v -14.5992 z m 9.35261,12.75529 V 28.17365 q 0,-0.731861 -0.30415,-1.264123 -0.30415,-0.532263 -0.89344,-0.817403 -0.58929,-0.285141 -1.45422,-0.285141 -0.79839,0 -1.4257,0.285141 -0.6178,0.275635 -0.97898,0.75087 -0.35168,0.465729 -0.35168,1.036011 l -1.13105,-0.0095 q 0,-0.579786 0.27563,-1.121553 0.28514,-0.541767 0.8079,-0.969478 0.52276,-0.427711 1.24512,-0.674833 0.73186,-0.256626 1.61579,-0.256626 1.09304,0 1.92945,0.370682 0.84592,0.370683 1.32116,1.112049 0.48473,0.741365 0.48473,1.862918 v 4.970952 q 0,0.532262 0.076,1.102543 0.0855,0.570282 0.23762,0.93146 v 0.123561 h -1.2166 q -0.11406,-0.342169 -0.18059,-0.855422 -0.057,-0.522758 -0.057,-0.988488 z m 0.26613,-4.144043 0.019,0.874431 h -2.22409 q -0.87444,0 -1.56828,0.16158 -0.68434,0.152075 -1.15957,0.44672 -0.47523,0.294645 -0.73186,0.722356 -0.24712,0.418206 -0.24712,0.950469 0,0.551272 0.27563,1.007497 0.27564,0.456225 0.7984,0.722356 0.52275,0.266131 1.23561,0.266131 0.94096,0 1.66332,-0.342169 0.73186,-0.351673 1.20709,-0.921954 0.47524,-0.570281 0.63682,-1.245114 l 0.49424,0.655823 q -0.12356,0.46573 -0.45623,0.969478 -0.32315,0.503749 -0.84591,0.940964 -0.51326,0.427711 -1.22611,0.703347 -0.70334,0.266131 -1.60629,0.266131 -0.99799,0 -1.74886,-0.380187 -0.75087,-0.389692 -1.15957,-1.045516 -0.4087,-0.665328 -0.4087,-1.50174 0,-0.750871 0.32315,-1.349666 0.32316,-0.6083 0.93146,-1.026506 0.6083,-0.427711 1.47323,-0.646319 0.87443,-0.228112 1.95797,-0.228112 z m 3.89692,-8.611247 h 1.14057 V 33.32519 l -0.076,1.995985 h -1.06453 z m 8.2976,9.362117 v 0.199598 q 0,1.150068 -0.26614,2.110041 -0.25662,0.950469 -0.76037,1.653816 -0.50375,0.693842 -1.23561,1.083534 -0.73186,0.380187 -1.66332,0.380187 -0.92195,0 -1.63481,-0.294645 -0.71285,-0.294645 -1.2166,-0.826908 -0.50374,-0.532262 -0.8174,-1.264123 -0.30415,-0.731861 -0.41821,-1.596788 v -2.537751 q 0.14257,-0.931459 0.45623,-1.691834 0.31365,-0.760375 0.8079,-1.311647 0.50375,-0.551272 1.19759,-0.845917 0.70335,-0.294645 1.60629,-0.294645 0.94096,0 1.67283,0.370682 0.74136,0.361178 1.24511,1.055021 0.50375,0.684337 0.76037,1.653815 0.26614,0.959973 0.26614,2.157564 z m -1.15007,0.199598 v -0.199598 q 0,-0.902945 -0.17109,-1.672825 -0.17108,-0.76988 -0.54176,-1.340161 -0.36118,-0.579786 -0.93146,-0.902945 -0.57028,-0.323159 -1.36868,-0.323159 -0.8174,0 -1.38768,0.275636 -0.57028,0.266131 -0.95047,0.712851 -0.37068,0.437216 -0.58929,0.959973 -0.21861,0.522758 -0.32316,1.026507 v 2.946453 q 0.16158,0.722356 0.56078,1.349665 0.39919,0.617805 1.06452,1.007497 0.67483,0.380188 1.64431,0.380188 0.77939,0 1.34016,-0.313655 0.57028,-0.323159 0.93146,-0.893441 0.37069,-0.579786 0.54177,-1.349665 0.18059,-0.76988 0.18059,-1.663321 z m 4.94244,-9.561715 v 14.5992 h -1.14057 v -14.5992 z m 7.08099,14.789293 q -1.0075,0 -1.85342,-0.370682 -0.84591,-0.370683 -1.46372,-1.045516 -0.6178,-0.674833 -0.95997,-1.596787 -0.34217,-0.93146 -0.34217,-2.034003 v -0.408702 q 0,-1.188086 0.35167,-2.148059 0.36118,-0.959974 0.96948,-1.644311 0.6178,-0.693842 1.40669,-1.05502 0.7984,-0.361178 1.68233,-0.361178 0.97899,0 1.72986,0.351673 0.76037,0.342169 1.28313,0.978983 0.52276,0.627309 0.78889,1.492236 0.26613,0.855421 0.26613,1.891432 v 0.693842 h -7.78434 v -0.978982 h 6.64378 v -0.123561 q -0.019,-0.864927 -0.35168,-1.615797 -0.32316,-0.760375 -0.96947,-1.235609 -0.63682,-0.475235 -1.6063,-0.475235 -0.73186,0 -1.33065,0.30415 -0.5988,0.30415 -1.03601,0.874431 -0.42771,0.560777 -0.66533,1.340161 -0.23762,0.76988 -0.23762,1.710844 v 0.408702 q 0,0.845917 0.25663,1.587282 0.25662,0.741366 0.72235,1.302142 0.46573,0.551272 1.11205,0.874432 0.64632,0.313654 1.43521,0.313654 0.90295,0 1.60629,-0.332664 0.71285,-0.342168 1.27363,-1.074029 l 0.71285,0.551271 q -0.34217,0.494244 -0.83641,0.91245 -0.49424,0.408702 -1.18809,0.665328 -0.69384,0.247122 -1.61579,0.247122 z m 10.19853,-5.180054 v -0.30415 q 0,-1.121553 0.32316,-2.072022 0.33266,-0.950469 0.93146,-1.644311 0.59879,-0.693842 1.44471,-1.074029 0.84592,-0.389692 1.88193,-0.389692 1.04551,0 1.89143,0.389692 0.85542,0.380187 1.45422,1.074029 0.6083,0.693842 0.93146,1.644311 0.32315,0.950469 0.32315,2.072022 v 0.30415 q 0,1.121553 -0.32315,2.072022 -0.32316,0.940964 -0.93146,1.644311 -0.5988,0.693842 -1.44472,1.083534 -0.83641,0.380187 -1.88192,0.380187 -1.04552,0 -1.89144,-0.380187 -0.84591,-0.389692 -1.45421,-1.083534 -0.5988,-0.703347 -0.93146,-1.644311 -0.32316,-0.950469 -0.32316,-2.072022 z m 1.14056,-0.30415 v 0.30415 q 0,0.845917 0.21861,1.606292 0.22811,0.75087 0.66533,1.340161 0.44672,0.579786 1.09303,0.921955 0.64632,0.332664 1.48274,0.332664 0.83641,0 1.47322,-0.332664 0.64632,-0.342169 1.08354,-0.921955 0.43721,-0.589291 0.65582,-1.340161 0.22811,-0.760375 0.22811,-1.606292 v -0.30415 q 0,-0.836413 -0.22811,-1.587283 -0.21861,-0.75087 -0.66533,-1.340161 -0.43721,-0.58929 -1.08353,-0.931459 -0.64632,-0.342169 -1.48273,-0.342169 -0.82691,0 -1.47323,0.342169 -0.63681,0.342169 -1.08353,0.931459 -0.43722,0.589291 -0.66533,1.340161 -0.21861,0.75087 -0.21861,1.587283 z m 11.52919,-2.794378 v 8.088489 H 185.5207 V 25.037103 h 1.08354 z m -0.24712,2.309639 -0.50375,-0.285141 q 0.0475,-0.91245 0.36118,-1.710843 0.31365,-0.798394 0.84591,-1.406694 0.54177,-0.6083 1.27363,-0.950469 0.73186,-0.342168 1.6158,-0.342168 0.76988,0 1.37818,0.209103 0.6083,0.209103 1.0265,0.665328 0.42772,0.44672 0.64632,1.169076 0.22812,0.712852 0.22812,1.729853 v 6.700805 h -1.14057 v -6.710309 q 0,-1.055021 -0.29464,-1.653816 -0.29465,-0.6083 -0.83641,-0.864926 -0.54177,-0.256627 -1.28314,-0.256627 -0.8174,0 -1.4352,0.361178 -0.6083,0.351673 -1.02651,0.921955 -0.4087,0.560776 -0.62731,1.207095 -0.21861,0.636814 -0.22811,1.2166 z"
         id="path1" /><path
         style="font-family:Roboto;-inkscape-font-specification:Roboto"
         d="M 96.053078,46.493215 V 60.33204 H 94.218673 V 46.493215 Z m 5.797862,6.22557 v 1.501741 h -6.197059 v -1.501741 z m 0.94096,-6.22557 v 1.501741 h -7.138019 v -1.501741 z m 3.83039,3.554753 V 60.33204 h -1.76787 V 50.047968 Z m -1.90094,-2.727845 q 0,-0.427711 0.25663,-0.722356 0.26613,-0.294645 0.77938,-0.294645 0.50375,0 0.76988,0.294645 0.27564,0.294645 0.27564,0.722356 0,0.408702 -0.27564,0.703347 -0.26613,0.285141 -0.76988,0.285141 -0.51325,0 -0.77938,-0.285141 -0.25663,-0.294645 -0.25663,-0.703347 z m 6.4822,4.343642 v 8.668275 h -1.75837 V 50.047968 h 1.71085 z m 3.21258,-1.672825 -0.009,1.634806 q -0.21861,-0.04752 -0.41821,-0.05703 -0.19009,-0.01901 -0.43721,-0.01901 -0.6083,0 -1.07403,0.190094 -0.46573,0.190093 -0.78889,0.532262 -0.32316,0.342169 -0.51326,0.817403 -0.18058,0.46573 -0.23761,1.026506 l -0.49425,0.285141 q 0,-0.931459 0.18059,-1.748862 0.1901,-0.817403 0.57979,-1.444713 0.38969,-0.636814 0.98849,-0.988487 0.6083,-0.361178 1.44471,-0.361178 0.19009,0 0.43721,0.04752 0.24713,0.03802 0.34217,0.08554 z m 5.71232,10.531194 q -1.07403,0 -1.94846,-0.361179 -0.86493,-0.370682 -1.49224,-1.03601 -0.6178,-0.665329 -0.95046,-1.577779 -0.33267,-0.912449 -0.33267,-1.995984 v -0.399197 q 0,-1.254618 0.37068,-2.233601 0.37069,-0.988488 1.0075,-1.672825 0.63681,-0.684337 1.44471,-1.036011 0.8079,-0.351673 1.67283,-0.351673 1.10254,0 1.90094,0.380187 0.80789,0.380188 1.32115,1.064525 0.51325,0.674833 0.76037,1.596788 0.24712,0.912449 0.24712,1.995984 v 0.788889 h -7.67978 V 54.24904 h 5.92142 v -0.133066 q -0.038,-0.684337 -0.28514,-1.330656 -0.23762,-0.646318 -0.76038,-1.064525 -0.52276,-0.418206 -1.4257,-0.418206 -0.5988,0 -1.10255,0.256627 -0.50374,0.247122 -0.86492,0.741365 -0.36118,0.494244 -0.56078,1.207095 -0.1996,0.712852 -0.1996,1.644311 v 0.399197 q 0,0.731861 0.1996,1.37818 0.2091,0.636814 0.5988,1.121553 0.39919,0.484739 0.95997,0.760375 0.57028,0.275636 1.29264,0.275636 0.93146,0 1.57778,-0.380188 0.64631,-0.380187 1.13105,-1.017001 l 1.06453,0.845917 q -0.33267,0.503748 -0.84592,0.959973 -0.51325,0.456225 -1.26412,0.741366 -0.74137,0.285141 -1.75837,0.285141 z m 8.67778,-0.190094 h -1.75837 V 48.964434 q 0,-1.112048 0.3992,-1.872423 0.4087,-0.76988 1.16907,-1.159572 0.76038,-0.399197 1.80589,-0.399197 0.30415,0 0.6083,0.03802 0.31366,0.03802 0.6083,0.114056 l -0.095,1.435208 q -0.1996,-0.04752 -0.45623,-0.06653 -0.24712,-0.01901 -0.49424,-0.01901 -0.56078,0 -0.96948,0.228112 -0.3992,0.218608 -0.6083,0.646319 -0.2091,0.427711 -0.2091,1.05502 z m 2.18608,-10.284072 v 1.349666 h -5.56975 v -1.349666 z m 1.49223,5.256092 v -0.218607 q 0,-1.112049 0.32316,-2.062518 0.32316,-0.959973 0.93146,-1.66332 0.6083,-0.712851 1.47323,-1.102543 0.86492,-0.399197 1.93895,-0.399197 1.08354,0 1.94846,0.399197 0.87444,0.389692 1.48274,1.102543 0.6178,0.703347 0.94096,1.66332 0.32316,0.950469 0.32316,2.062518 v 0.218607 q 0,1.112049 -0.32316,2.062517 -0.32316,0.950469 -0.94096,1.663321 -0.6083,0.703347 -1.47323,1.102543 -0.85542,0.389693 -1.93896,0.389693 -1.08353,0 -1.94846,-0.389693 -0.86492,-0.399196 -1.48273,-1.102543 -0.6083,-0.712852 -0.93146,-1.663321 -0.32316,-0.950468 -0.32316,-2.062517 z m 1.75837,-0.218607 v 0.218607 q 0,0.76988 0.18059,1.454217 0.18059,0.674833 0.54177,1.197591 0.37068,0.522758 0.92195,0.826908 0.55127,0.294645 1.28313,0.294645 0.72236,0 1.26413,-0.294645 0.55127,-0.30415 0.91245,-0.826908 0.36117,-0.522758 0.54176,-1.197591 0.1901,-0.684337 0.1901,-1.454217 v -0.218607 q 0,-0.760375 -0.1901,-1.435208 -0.18059,-0.684338 -0.55127,-1.207095 -0.36118,-0.532263 -0.91245,-0.836413 -0.54177,-0.30415 -1.27363,-0.30415 -0.72235,0 -1.27362,0.30415 -0.54177,0.30415 -0.91245,0.836413 -0.36118,0.522757 -0.54177,1.207095 -0.18059,0.674833 -0.18059,1.435208 z m 10.79733,-5.037485 2.25261,3.744847 2.28112,-3.744847 h 2.06252 l -3.36466,5.075503 3.46921,5.208569 h -2.034 l -2.37617,-3.858903 -2.37618,3.858903 h -2.0435 l 3.4597,-5.208569 -3.35515,-5.075503 z"
         id="path2" /><path
         style="font-weight:500;font-family:Roboto;-inkscape-font-specification:'Roboto Medium'"
         d="m 163.79298,48.337125 -4.13454,11.994915 h -2.49973 l 5.20857,-13.838825 h 1.59679 z m 3.45971,11.994915 -4.14404,-11.994915 -0.18059,-1.84391 h 1.60629 l 5.22758,13.838825 z m -0.1996,-5.132531 v 1.891433 h -7.52771 v -1.891433 z m 8.27858,5.132531 h -2.95596 l 0.019,-1.891433 h 2.93695 q 1.28313,0 2.14806,-0.560776 0.87443,-0.560777 1.31165,-1.606293 0.44672,-1.045515 0.44672,-2.490228 v -0.75087 q 0,-1.121553 -0.25663,-1.986479 -0.24712,-0.864927 -0.74136,-1.454218 -0.48474,-0.58929 -1.19759,-0.89344 -0.70335,-0.30415 -1.62531,-0.30415 h -3.09852 v -1.900938 h 3.09852 q 1.37818,0 2.51875,0.46573 1.14056,0.456225 1.96747,1.321152 0.83641,0.864926 1.28313,2.072021 0.44672,1.207096 0.44672,2.699332 v 0.73186 q 0,1.492236 -0.44672,2.699332 -0.44672,1.207095 -1.28313,2.072021 -0.83642,0.855422 -1.99599,1.321152 -1.15007,0.456225 -2.57577,0.456225 z m -1.6348,-13.838825 V 60.33204 h -2.38568 V 46.493215 Z m 14.34257,13.838825 h -2.95595 l 0.019,-1.891433 h 2.93695 q 1.28314,0 2.14806,-0.560776 0.87443,-0.560777 1.31165,-1.606293 0.44672,-1.045515 0.44672,-2.490228 v -0.75087 q 0,-1.121553 -0.25663,-1.986479 -0.24712,-0.864927 -0.74136,-1.454218 -0.48474,-0.58929 -1.19759,-0.89344 -0.70335,-0.30415 -1.6253,-0.30415 h -3.09853 v -1.900938 h 3.09853 q 1.37817,0 2.51874,0.46573 1.14056,0.456225 1.96747,1.321152 0.83641,0.864926 1.28313,2.072021 0.44672,1.207096 0.44672,2.699332 v 0.73186 q 0,1.492236 -0.44672,2.699332 -0.44672,1.207095 -1.28313,2.072021 -0.83642,0.855422 -1.99599,1.321152 -1.15006,0.456225 -2.57577,0.456225 z m -1.6348,-13.838825 V 60.33204 h -2.38568 V 46.493215 Z m 14.70374,7.014459 v 1.8249 h -5.02797 v -1.8249 z m 13.26855,-0.475234 v 0.760375 q 0,1.568273 -0.4087,2.813387 -0.4087,1.245114 -1.16908,2.119546 -0.75087,0.874431 -1.80589,1.340161 -1.05502,0.456225 -2.33815,0.456225 -1.27363,0 -2.32865,-0.456225 -1.04552,-0.46573 -1.81539,-1.340161 -0.76988,-0.874432 -1.1976,-2.119546 -0.4182,-1.245114 -0.4182,-2.813387 V 53.03244 q 0,-1.568273 0.4182,-2.803883 0.41821,-1.245114 1.17859,-2.119545 0.76988,-0.883936 1.81539,-1.340161 1.05502,-0.465729 2.32865,-0.465729 1.28313,0 2.33815,0.465729 1.05502,0.456225 1.8154,1.340161 0.76037,0.874431 1.16907,2.119545 0.41821,1.23561 0.41821,2.803883 z m -2.38568,0.760375 v -0.779384 q 0,-1.159572 -0.22811,-2.043508 -0.21861,-0.893441 -0.65582,-1.492236 -0.42771,-0.6083 -1.05502,-0.91245 -0.62731,-0.313654 -1.4162,-0.313654 -0.78889,0 -1.40669,0.313654 -0.61781,0.30415 -1.05502,0.91245 -0.42772,0.598795 -0.65583,1.492236 -0.22811,0.883936 -0.22811,2.043508 v 0.779384 q 0,1.159572 0.22811,2.053013 0.22811,0.89344 0.66533,1.511245 0.44672,0.6083 1.06453,0.921954 0.6178,0.30415 1.40669,0.30415 0.79839,0 1.4162,-0.30415 0.6178,-0.313654 1.04551,-0.921954 0.42771,-0.617805 0.64632,-1.511245 0.22811,-0.893441 0.22811,-2.053013 z m 15.73976,-7.2996 V 60.33204 h -2.38567 l -6.20656,-9.913389 V 60.33204 H 216.7531 V 46.493215 h 2.38568 l 6.22557,9.932398 v -9.932398 z m 10.113,10.274567 q 0,-0.427711 -0.13307,-0.760375 -0.12356,-0.332664 -0.44672,-0.6083 -0.32316,-0.275636 -0.91245,-0.532262 -0.57978,-0.266131 -1.48273,-0.541767 -0.98849,-0.30415 -1.8249,-0.674833 -0.82691,-0.380188 -1.44471,-0.874431 -0.61781,-0.503749 -0.95998,-1.150068 -0.34216,-0.655823 -0.34216,-1.511245 0,-0.845917 0.35167,-1.539759 0.36118,-0.693842 1.017,-1.197591 0.66533,-0.513253 1.56827,-0.788889 0.90295,-0.28514 1.99599,-0.28514 1.53976,0 2.65181,0.570281 1.12155,0.570281 1.72034,1.530255 0.6083,0.959973 0.6083,2.119545 h -2.36666 q 0,-0.684338 -0.29465,-1.207095 -0.28514,-0.532263 -0.87443,-0.836413 -0.57979,-0.30415 -1.47323,-0.30415 -0.84591,0 -1.40669,0.256627 -0.56078,0.256626 -0.83641,0.693842 -0.27564,0.437215 -0.27564,0.988487 0,0.389692 0.18059,0.712852 0.18059,0.313654 0.55127,0.58929 0.37069,0.266132 0.93146,0.503749 0.56078,0.237617 1.32115,0.456225 1.15007,0.342168 2.00549,0.760375 0.85542,0.408701 1.42571,0.931459 0.57028,0.522758 0.85542,1.188086 0.28514,0.655823 0.28514,1.492236 0,0.874431 -0.35168,1.577778 -0.35167,0.693842 -1.00749,1.188086 -0.64632,0.484739 -1.55877,0.75087 -0.90295,0.256627 -2.01499,0.256627 -0.998,0 -1.96747,-0.266132 -0.95998,-0.266131 -1.74887,-0.807898 -0.78889,-0.551272 -1.25462,-1.368675 -0.46573,-0.826908 -0.46573,-1.929452 h 2.38568 q 0,0.674833 0.22811,1.150068 0.23762,0.475234 0.65583,0.779384 0.4182,0.294645 0.96947,0.437216 0.56078,0.14257 1.1976,0.14257 0.83641,0 1.39718,-0.237617 0.57029,-0.237617 0.85543,-0.665328 0.28514,-0.427711 0.28514,-0.988488 z"
         id="path3" /></g><title
       id="title1">Firefox Browser logo</title><g
       transform="matrix(0.72444276,0,0,0.72444276,22.286734,9.8087187)"
       id="g77"
       style="display:inline"
       inkscape:label="firefox logo"><path
         d="m 74.62,26.83 c -1.684,-4.052 -5.1,-8.427 -7.775,-9.81 a 40.27,40.27 0 0 1 3.925,11.76 l 0.007,0.065 C 66.395,17.925 58.967,13.515 52.897,3.925 52.59,3.44 52.283,2.954 51.984,2.441 51.813,2.148 51.676,1.884 51.557,1.641 a 7.053,7.053 0 0 1 -0.578,-1.535 0.1,0.1 0 0 0 -0.088,-0.1 0.138,0.138 0 0 0 -0.073,0 c -0.005,0 -0.013,0.009 -0.019,0.011 -0.006,0.002 -0.019,0.011 -0.028,0.015 l 0.015,-0.026 c -9.735,5.7 -13.04,16.25 -13.34,21.53 a 19.39,19.39 0 0 0 -10.67,4.111 11.59,11.59 0 0 0 -1,-0.758 17.97,17.97 0 0 1 -0.109,-9.473 28.7,28.7 0 0 0 -9.329,7.21 H 16.32 c -1.536,-1.947 -1.428,-8.367 -1.34,-9.708 a 6.928,6.928 0 0 0 -1.294,0.687 28.22,28.22 0 0 0 -3.788,3.245 33.84,33.84 0 0 0 -3.623,4.347 v 0.006 -0.007 a 32.73,32.73 0 0 0 -5.2,11.74 l -0.052,0.256 c -0.073,0.341 -0.336,2.049 -0.381,2.42 0,0.029 -0.006,0.056 -0.009,0.085 A 36.94,36.94 0 0 0 0.004,41.04 v 0.2 a 38.76,38.76 0 0 0 76.95,6.554 c 0.065,-0.5 0.118,-0.995 0.176,-1.5 A 39.86,39.86 0 0 0 74.616,26.824 Z M 29.95,57.17 c 0.181,0.087 0.351,0.181 0.537,0.264 l 0.027,0.017 Q 30.232,57.316 29.95,57.17 Z m 8.878,-23.38 m 31.95,-4.934 v -0.037 l 0.007,0.041 z"
         fill="url(#a)"
         id="path66"
         style="fill:url(#a-3)" /><path
         d="m 74.62,26.83 c -1.684,-4.052 -5.1,-8.427 -7.775,-9.81 a 40.27,40.27 0 0 1 3.925,11.76 v 0.037 l 0.007,0.041 a 35.1,35.1 0 0 1 -1.206,26.16 c -4.442,9.531 -15.19,19.3 -32.02,18.82 -18.18,-0.515 -34.2,-14.01 -37.19,-31.68 -0.545,-2.787 0,-4.2 0.274,-6.465 a 28.88,28.88 0 0 0 -0.623,5.348 v 0.2 a 38.76,38.76 0 0 0 76.95,6.554 c 0.065,-0.5 0.118,-0.995 0.176,-1.5 a 39.86,39.86 0 0 0 -2.514,-19.47 z"
         fill="url(#b)"
         id="path67"
         style="fill:url(#b-6)" /><path
         d="m 74.62,26.83 c -1.684,-4.052 -5.1,-8.427 -7.775,-9.81 a 40.27,40.27 0 0 1 3.925,11.76 v 0.037 l 0.007,0.041 a 35.1,35.1 0 0 1 -1.206,26.16 c -4.442,9.531 -15.19,19.3 -32.02,18.82 -18.18,-0.515 -34.2,-14.01 -37.19,-31.68 -0.545,-2.787 0,-4.2 0.274,-6.465 a 28.88,28.88 0 0 0 -0.623,5.348 v 0.2 a 38.76,38.76 0 0 0 76.95,6.554 c 0.065,-0.5 0.118,-0.995 0.176,-1.5 a 39.86,39.86 0 0 0 -2.514,-19.47 z"
         fill="url(#c)"
         id="path68"
         style="fill:url(#c-7)" /><path
         d="m 55.78,31.38 c 0.084,0.059 0.162,0.118 0.241,0.177 a 21.1,21.1 0 0 0 -3.6,-4.695 C 40.371,14.812 49.264,0.742 50.763,0.022 L 50.778,0 c -9.735,5.7 -13.04,16.25 -13.34,21.53 0.452,-0.031 0.9,-0.069 1.362,-0.069 a 19.56,19.56 0 0 1 16.98,9.917 z"
         fill="url(#d)"
         id="path69"
         style="fill:url(#d-5)" /><path
         d="m 38.82,33.79 c -0.064,0.964 -3.47,4.289 -4.661,4.289 -11.02,0 -12.81,6.667 -12.81,6.667 0.488,5.614 4.4,10.24 9.129,12.68 0.216,0.112 0.435,0.213 0.654,0.312 q 0.569,0.252 1.138,0.466 a 17.24,17.24 0 0 0 5.043,0.973 c 19.32,0.906 23.06,-23.1 9.119,-30.07 a 13.38,13.38 0 0 1 9.345,2.269 19.56,19.56 0 0 0 -16.98,-9.917 c -0.46,0 -0.91,0.038 -1.362,0.069 a 19.39,19.39 0 0 0 -10.67,4.111 c 0.591,0.5 1.258,1.168 2.663,2.553 2.63,2.591 9.375,5.275 9.39,5.59 z"
         fill="url(#e)"
         id="path70"
         style="fill:url(#e-3)" /><path
         d="m 38.82,33.79 c -0.064,0.964 -3.47,4.289 -4.661,4.289 -11.02,0 -12.81,6.667 -12.81,6.667 0.488,5.614 4.4,10.24 9.129,12.68 0.216,0.112 0.435,0.213 0.654,0.312 q 0.569,0.252 1.138,0.466 a 17.24,17.24 0 0 0 5.043,0.973 c 19.32,0.906 23.06,-23.1 9.119,-30.07 a 13.38,13.38 0 0 1 9.345,2.269 19.56,19.56 0 0 0 -16.98,-9.917 c -0.46,0 -0.91,0.038 -1.362,0.069 a 19.39,19.39 0 0 0 -10.67,4.111 c 0.591,0.5 1.258,1.168 2.663,2.553 2.63,2.591 9.375,5.275 9.39,5.59 z"
         fill="url(#f)"
         id="path71"
         style="fill:url(#f-5)" /><path
         d="m 24.96,24.36 c 0.314,0.2 0.573,0.374 0.8,0.531 a 17.97,17.97 0 0 1 -0.109,-9.473 28.7,28.7 0 0 0 -9.329,7.21 c 0.189,-0.005 5.811,-0.106 8.638,1.732 z"
         fill="url(#g)"
         id="path72"
         style="fill:url(#g-6)" /><path
         d="m 0.354,42.16 c 2.991,17.67 19.01,31.17 37.19,31.68 16.83,0.476 27.58,-9.294 32.02,-18.82 A 35.1,35.1 0 0 0 70.77,28.86 v -0.037 c 0,-0.029 -0.006,-0.046 0,-0.037 l 0.007,0.065 c 1.375,8.977 -3.191,17.67 -10.33,23.56 l -0.022,0.05 c -13.91,11.33 -27.22,6.834 -29.91,5 Q 30.233,57.326 29.951,57.18 C 21.842,53.304 18.491,45.92 19.211,39.58 a 9.953,9.953 0 0 1 -9.181,-5.775 14.62,14.62 0 0 1 14.25,-0.572 19.3,19.3 0 0 0 14.55,0.572 c -0.015,-0.315 -6.76,-3 -9.39,-5.59 -1.405,-1.385 -2.072,-2.052 -2.663,-2.553 a 11.59,11.59 0 0 0 -1,-0.758 c -0.23,-0.157 -0.489,-0.327 -0.8,-0.531 -2.827,-1.838 -8.449,-1.737 -8.635,-1.732 h -0.018 c -1.536,-1.947 -1.428,-8.367 -1.34,-9.708 A 6.928,6.928 0 0 0 13.69,13.62 28.22,28.22 0 0 0 9.902,16.865 33.84,33.84 0 0 0 6.264,21.202 v 0.006 -0.007 a 32.73,32.73 0 0 0 -5.2,11.74 C 1.045,33.02 -0.332,39.04 0.347,42.162 Z"
         fill="url(#h)"
         id="path73"
         style="fill:url(#h-2)" /><path
         d="m 52.42,26.86 a 21.1,21.1 0 0 1 3.6,4.7 c 0.213,0.161 0.412,0.321 0.581,0.476 8.787,8.1 4.183,19.55 3.84,20.36 7.138,-5.881 11.7,-14.58 10.33,-23.56 C 66.387,17.906 58.951,13.496 52.891,3.906 52.584,3.421 52.277,2.935 51.978,2.422 51.807,2.129 51.67,1.865 51.551,1.622 a 7.053,7.053 0 0 1 -0.578,-1.535 0.1,0.1 0 0 0 -0.088,-0.1 0.138,0.138 0 0 0 -0.073,0 c -0.005,0 -0.013,0.009 -0.019,0.011 -0.006,0.002 -0.019,0.011 -0.028,0.015 -1.499,0.711 -10.39,14.79 1.66,26.83 z"
         fill="url(#i)"
         id="path74"
         style="fill:url(#i-9)" /><path
         d="M 56.6,32.04 C 56.431,31.885 56.232,31.725 56.019,31.564 55.94,31.505 55.862,31.446 55.778,31.387 a 13.38,13.38 0 0 0 -9.345,-2.269 c 13.94,6.97 10.2,30.97 -9.119,30.07 a 17.24,17.24 0 0 1 -5.043,-0.973 q -0.569,-0.213 -1.138,-0.466 c -0.219,-0.1 -0.438,-0.2 -0.654,-0.312 l 0.027,0.017 c 2.694,1.839 16,6.332 29.91,-5 l 0.022,-0.05 c 0.347,-0.81 4.951,-12.26 -3.84,-20.36 z"
         fill="url(#j)"
         id="path75"
         style="fill:url(#j-1)" /><path
         d="m 21.35,44.74 c 0,0 1.789,-6.667 12.81,-6.667 1.191,0 4.6,-3.325 4.661,-4.289 a 19.3,19.3 0 0 1 -14.55,-0.572 14.62,14.62 0 0 0 -14.25,0.572 9.953,9.953 0 0 0 9.181,5.775 c -0.718,6.337 2.632,13.72 10.74,17.6 0.181,0.087 0.351,0.181 0.537,0.264 -4.733,-2.445 -8.641,-7.069 -9.129,-12.68 z"
         fill="url(#k)"
         id="path76"
         style="fill:url(#k-2)" /><path
         d="m 74.62,26.83 c -1.684,-4.052 -5.1,-8.427 -7.775,-9.81 a 40.27,40.27 0 0 1 3.925,11.76 l 0.007,0.065 C 66.395,17.925 58.967,13.515 52.897,3.925 52.59,3.44 52.283,2.954 51.984,2.441 51.813,2.148 51.676,1.884 51.557,1.641 a 7.053,7.053 0 0 1 -0.578,-1.535 0.1,0.1 0 0 0 -0.088,-0.1 0.138,0.138 0 0 0 -0.073,0 c -0.005,0 -0.013,0.009 -0.019,0.011 -0.006,0.002 -0.019,0.011 -0.028,0.015 l 0.015,-0.026 c -9.735,5.7 -13.04,16.25 -13.34,21.53 0.452,-0.031 0.9,-0.069 1.362,-0.069 a 19.56,19.56 0 0 1 16.98,9.917 13.38,13.38 0 0 0 -9.345,-2.269 c 13.94,6.97 10.2,30.97 -9.119,30.07 a 17.24,17.24 0 0 1 -5.043,-0.973 q -0.569,-0.213 -1.138,-0.466 c -0.219,-0.1 -0.438,-0.2 -0.654,-0.312 l 0.027,0.017 Q 30.234,57.316 29.952,57.17 c 0.181,0.087 0.351,0.181 0.537,0.264 -4.733,-2.446 -8.641,-7.07 -9.129,-12.68 0,0 1.789,-6.667 12.81,-6.667 1.191,0 4.6,-3.325 4.661,-4.289 -0.015,-0.315 -6.76,-3 -9.39,-5.59 -1.405,-1.385 -2.072,-2.052 -2.663,-2.553 a 11.59,11.59 0 0 0 -1,-0.758 17.97,17.97 0 0 1 -0.109,-9.473 28.7,28.7 0 0 0 -9.329,7.21 h -0.018 c -1.536,-1.947 -1.428,-8.367 -1.34,-9.708 A 6.928,6.928 0 0 0 13.688,13.613 28.22,28.22 0 0 0 9.9,16.858 33.84,33.84 0 0 0 6.277,21.205 v 0.006 -0.007 a 32.73,32.73 0 0 0 -5.2,11.74 L 1.025,33.2 c -0.073,0.341 -0.4,2.073 -0.447,2.445 a 45.09,45.09 0 0 0 -0.572,5.403 v 0.2 a 38.76,38.76 0 0 0 76.95,6.554 c 0.065,-0.5 0.118,-0.995 0.176,-1.5 a 39.86,39.86 0 0 0 -2.514,-19.47 z m -3.845,1.991 0.007,0.041 z"
         fill="url(#l)"
         id="path77"
         style="fill:url(#l-7)" /></g></g></svg>
