<?xml version="1.0" encoding="UTF-8" standalone="no"?>
<!-- Created with Inkscape (http://www.inkscape.org/) -->

<svg
   width="978.81885"
   height="296.22556"
   viewBox="0 0 258.97915 78.376343"
   version="1.1"
   id="svg5"
   xml:space="preserve"
   sodipodi:docname="firefox-banner.svg"
   inkscape:version="1.3.2 (091e20ef0f, 2023-11-25, custom)"
   inkscape:export-filename="promo.png"
   inkscape:export-xdpi="98.077393"
   inkscape:export-ydpi="98.077393"
   xmlns:inkscape="http://www.inkscape.org/namespaces/inkscape"
   xmlns:sodipodi="http://sodipodi.sourceforge.net/DTD/sodipodi-0.dtd"
   xmlns:xlink="http://www.w3.org/1999/xlink"
   xmlns="http://www.w3.org/2000/svg"
   xmlns:svg="http://www.w3.org/2000/svg"><sodipodi:namedview
     id="namedview7"
     pagecolor="#505050"
     bordercolor="#eeeeee"
     borderopacity="1"
     inkscape:showpageshadow="0"
     inkscape:pageopacity="0"
     inkscape:pagecheckerboard="0"
     inkscape:deskcolor="#505050"
     inkscape:document-units="mm"
     showgrid="false"
     inkscape:zoom="0.46803664"
     inkscape:cx="342.92187"
     inkscape:cy="209.38532"
     inkscape:window-width="1707"
     inkscape:window-height="1012"
     inkscape:window-x="0"
     inkscape:window-y="0"
     inkscape:window-maximized="1"
     inkscape:current-layer="layer1" /><defs
     id="defs2"><linearGradient
       inkscape:collect="always"
       id="linearGradient502"><stop
         style="stop-color:#190e2d;stop-opacity:1"
         offset="0"
         id="stop498" /><stop
         style="stop-color:#2b184f;stop-opacity:1"
         offset="1"
         id="stop500" /></linearGradient><style
       id="style132">.a{fill:#d53;}.b{fill:#fff;}.c{fill:#ddd;}.d{fill:#fc0;}.e{fill:#6b5;}.f{fill:#4a4;}.g{fill:#148;}</style><linearGradient
       inkscape:collect="always"
       xlink:href="#linearGradient502"
       id="linearGradient504"
       x1="2.0345053e-05"
       y1="39.6875"
       x2="264.58334"
       y2="39.6875"
       gradientUnits="userSpaceOnUse"
       gradientTransform="matrix(0.97513339,0,0,0.97513339,3.2896461,0.98689374)" /><radialGradient
       id="a"
       cx="-1186.91"
       cy="-517.67603"
       r="90.779999"
       gradientTransform="matrix(0.72462954,0,0,0.72462954,932.38855,398.48311)"
       gradientUnits="userSpaceOnUse"><stop
         offset="0"
         stop-color="#fff36e"
         id="stop1289" /><stop
         offset=".5"
         stop-color="#fc4055"
         id="stop1291" /><stop
         offset="1"
         stop-color="#e31587"
         id="stop1293" /></radialGradient><radialGradient
       id="b"
       cx="-1251.812"
       cy="-513.92102"
       r="53.726002"
       gradientTransform="matrix(0.72462954,0,0,0.72462954,932.38855,398.48311)"
       gradientUnits="userSpaceOnUse"><stop
         offset=".001"
         stop-color="#c60084"
         id="stop1296" /><stop
         offset="1"
         stop-color="#fc4055"
         stop-opacity="0"
         id="stop1298" /></radialGradient><radialGradient
       id="c"
       cx="-1179.15"
       cy="-522.84198"
       r="106.599"
       gradientTransform="matrix(0.72462954,0,0,0.72462954,932.38855,398.48311)"
       gradientUnits="userSpaceOnUse"><stop
         offset="0"
         stop-color="#ffde67"
         stop-opacity=".6"
         id="stop1301" /><stop
         offset=".093"
         stop-color="#ffd966"
         stop-opacity=".581"
         id="stop1303" /><stop
         offset=".203"
         stop-color="#ffca65"
         stop-opacity=".525"
         id="stop1305" /><stop
         offset=".321"
         stop-color="#feb262"
         stop-opacity=".432"
         id="stop1307" /><stop
         offset=".446"
         stop-color="#fe8f5e"
         stop-opacity=".302"
         id="stop1309" /><stop
         offset=".573"
         stop-color="#fd6459"
         stop-opacity=".137"
         id="stop1311" /><stop
         offset=".664"
         stop-color="#fc4055"
         stop-opacity="0"
         id="stop1313" /></radialGradient><radialGradient
       id="d"
       cx="42.285"
       cy="44.499001"
       r="137.521"
       gradientTransform="matrix(0.72462954,0,0,0.72462954,20.485021,11.417871)"
       gradientUnits="userSpaceOnUse"><stop
         offset=".153"
         stop-color="#810220"
         id="stop1316" /><stop
         offset=".167"
         stop-color="#920b27"
         stop-opacity=".861"
         id="stop1318" /><stop
         offset=".216"
         stop-color="#cb2740"
         stop-opacity=".398"
         id="stop1320" /><stop
         offset=".253"
         stop-color="#ef394f"
         stop-opacity=".11"
         id="stop1322" /><stop
         offset=".272"
         stop-color="#fc4055"
         stop-opacity="0"
         id="stop1324" /></radialGradient><radialGradient
       id="e"
       cx="31.878"
       cy="42.77"
       r="137.521"
       gradientTransform="matrix(0.72462954,0,0,0.72462954,20.485021,11.417871)"
       gradientUnits="userSpaceOnUse"><stop
         offset=".113"
         stop-color="#810220"
         id="stop1327" /><stop
         offset=".133"
         stop-color="#920b27"
         stop-opacity=".861"
         id="stop1329" /><stop
         offset=".204"
         stop-color="#cb2740"
         stop-opacity=".398"
         id="stop1331" /><stop
         offset=".257"
         stop-color="#ef394f"
         stop-opacity=".11"
         id="stop1333" /><stop
         offset=".284"
         stop-color="#fc4055"
         stop-opacity="0"
         id="stop1335" /></radialGradient><linearGradient
       id="f"
       x1="-1212.61"
       y1="-525.10303"
       x2="-1189.052"
       y2="-484.29901"
       gradientTransform="matrix(0.72462954,0,0,0.72462954,932.38855,397.63456)"
       gradientUnits="userSpaceOnUse"><stop
         offset="0"
         stop-color="#ffbd4f"
         id="stop1338" /><stop
         offset=".508"
         stop-color="#ff9640"
         stop-opacity="0"
         id="stop1340" /></linearGradient><radialGradient
       id="g"
       cx="-1255.933"
       cy="-77.394997"
       r="88.862999"
       gradientTransform="matrix(0.69491973,0,0,0.69636899,943.5877,74.143977)"
       gradientUnits="userSpaceOnUse"><stop
         offset="0"
         stop-color="#ff9640"
         id="stop1343" /><stop
         offset=".8"
         stop-color="#fc4055"
         id="stop1345" /></radialGradient><radialGradient
       id="h"
       cx="-1255.933"
       cy="-77.394997"
       r="88.862999"
       gradientTransform="matrix(0.69491973,0,0,0.69636899,943.5877,74.143977)"
       gradientUnits="userSpaceOnUse"><stop
         offset=".084"
         stop-color="#ffde67"
         id="stop1348" /><stop
         offset=".147"
         stop-color="#ffdc66"
         stop-opacity=".968"
         id="stop1350" /><stop
         offset=".246"
         stop-color="#ffd562"
         stop-opacity=".879"
         id="stop1352" /><stop
         offset=".369"
         stop-color="#ffcb5d"
         stop-opacity=".734"
         id="stop1354" /><stop
         offset=".511"
         stop-color="#ffbc55"
         stop-opacity=".533"
         id="stop1356" /><stop
         offset=".667"
         stop-color="#ffaa4b"
         stop-opacity=".28"
         id="stop1358" /><stop
         offset=".822"
         stop-color="#ff9640"
         stop-opacity="0"
         id="stop1360" /></radialGradient><radialGradient
       id="i"
       cx="49.941002"
       cy="38.653999"
       r="41.790001"
       gradientTransform="matrix(0.1789835,0.70361527,-0.73260048,0.18767905,76.050337,-2.8979093)"
       gradientUnits="userSpaceOnUse"><stop
         offset=".363"
         stop-color="#fc4055"
         id="stop1363" /><stop
         offset=".443"
         stop-color="#fd604d"
         stop-opacity=".633"
         id="stop1365" /><stop
         offset=".545"
         stop-color="#fe8644"
         stop-opacity=".181"
         id="stop1367" /><stop
         offset=".59"
         stop-color="#ff9640"
         stop-opacity="0"
         id="stop1369" /></radialGradient><radialGradient
       id="j"
       cx="42.737"
       cy="42.193001"
       r="41.790001"
       gradientTransform="matrix(0.72462954,0,0,0.72462954,20.485021,11.417871)"
       gradientUnits="userSpaceOnUse"><stop
         offset=".216"
         stop-color="#fc4055"
         stop-opacity=".8"
         id="stop1372" /><stop
         offset=".267"
         stop-color="#fd5251"
         stop-opacity=".633"
         id="stop1374" /><stop
         offset=".41"
         stop-color="#fe8345"
         stop-opacity=".181"
         id="stop1376" /><stop
         offset=".474"
         stop-color="#ff9640"
         stop-opacity="0"
         id="stop1378" /></radialGradient><radialGradient
       id="k"
       cx="-1238.198"
       cy="-87.432999"
       r="150.19501"
       gradientTransform="matrix(0.69491973,0,0,0.69636899,943.5877,74.143977)"
       gradientUnits="userSpaceOnUse"><stop
         offset=".054"
         stop-color="#fff36e"
         id="stop1381" /><stop
         offset=".457"
         stop-color="#ff9640"
         id="stop1383" /><stop
         offset=".639"
         stop-color="#ff9640"
         id="stop1385" /></radialGradient><linearGradient
       id="l"
       x1="59.051998"
       y1="7.0830002"
       x2="18.155001"
       y2="77.919998"
       gradientUnits="userSpaceOnUse"
       gradientTransform="matrix(0.72462954,0,0,0.72462954,20.485021,11.48671)"><stop
         offset="0"
         stop-color="#fff36e"
         stop-opacity=".8"
         id="stop1388" /><stop
         offset=".094"
         stop-color="#fff36e"
         stop-opacity=".699"
         id="stop1390" /><stop
         offset=".752"
         stop-color="#fff36e"
         stop-opacity="0"
         id="stop1392" /></linearGradient><linearGradient
       id="m"
       x1="40.584999"
       y1="-0.67000002"
       x2="62.299999"
       y2="62.202999"
       gradientUnits="userSpaceOnUse"
       gradientTransform="matrix(0.72462954,0,0,0.72462954,20.485021,11.48671)"><stop
         offset="0"
         stop-color="#b833e1"
         id="stop1395" /><stop
         offset=".371"
         stop-color="#9059ff"
         id="stop1397" /><stop
         offset=".614"
         stop-color="#5b6df8"
         id="stop1399" /><stop
         offset="1"
         stop-color="#0090ed"
         id="stop1401" /></linearGradient><linearGradient
       id="n"
       x1="-1230.731"
       y1="-532.56598"
       x2="-1190.37"
       y2="-492.20499"
       gradientTransform="matrix(0.72462954,0,0,0.72462954,932.38855,397.63456)"
       gradientUnits="userSpaceOnUse"><stop
         offset=".805"
         stop-color="#722291"
         stop-opacity="0"
         id="stop1404" /><stop
         offset="1"
         stop-color="#592acb"
         stop-opacity=".5"
         id="stop1406" /></linearGradient><linearGradient
       id="a-3"
       x1="70.79"
       x2="6.447"
       y1="12.39"
       y2="74.47"
       gradientTransform="translate(-1.3,-0.004086)"
       gradientUnits="userSpaceOnUse"><stop
         stop-color="#fff44f"
         offset=".048"
         id="stop1" /><stop
         stop-color="#ffe847"
         offset=".111"
         id="stop2" /><stop
         stop-color="#ffc830"
         offset=".225"
         id="stop3" /><stop
         stop-color="#ff980e"
         offset=".368"
         id="stop4" /><stop
         stop-color="#ff8b16"
         offset=".401"
         id="stop5" /><stop
         stop-color="#ff672a"
         offset=".462"
         id="stop6" /><stop
         stop-color="#ff3647"
         offset=".534"
         id="stop7" /><stop
         stop-color="#e31587"
         offset=".705"
         id="stop8" /></linearGradient><radialGradient
       id="b-6"
       cx="-7907"
       cy="-8515"
       r="80.8"
       gradientTransform="translate(7974,8524)"
       gradientUnits="userSpaceOnUse"><stop
         stop-color="#ffbd4f"
         offset=".129"
         id="stop9" /><stop
         stop-color="#ffac31"
         offset=".186"
         id="stop10" /><stop
         stop-color="#ff9d17"
         offset=".247"
         id="stop11" /><stop
         stop-color="#ff980e"
         offset=".283"
         id="stop12" /><stop
         stop-color="#ff563b"
         offset=".403"
         id="stop13" /><stop
         stop-color="#ff3750"
         offset=".467"
         id="stop14" /><stop
         stop-color="#f5156c"
         offset=".71"
         id="stop15" /><stop
         stop-color="#eb0878"
         offset=".782"
         id="stop16" /><stop
         stop-color="#e50080"
         offset=".86"
         id="stop17" /></radialGradient><radialGradient
       id="c-7"
       cx="-7937"
       cy="-8482"
       r="80.8"
       gradientTransform="translate(7974,8524)"
       gradientUnits="userSpaceOnUse"><stop
         stop-color="#960e18"
         offset=".3"
         id="stop18" /><stop
         stop-color="#b11927"
         stop-opacity=".74"
         offset=".351"
         id="stop19" /><stop
         stop-color="#db293d"
         stop-opacity=".343"
         offset=".435"
         id="stop20" /><stop
         stop-color="#f5334b"
         stop-opacity=".094"
         offset=".497"
         id="stop21" /><stop
         stop-color="#ff3750"
         stop-opacity="0"
         offset=".53"
         id="stop22" /></radialGradient><radialGradient
       id="d-5"
       cx="-7927"
       cy="-8533"
       r="58.53"
       gradientTransform="translate(7974,8524)"
       gradientUnits="userSpaceOnUse"><stop
         stop-color="#fff44f"
         offset=".132"
         id="stop23" /><stop
         stop-color="#ffdc3e"
         offset=".252"
         id="stop24" /><stop
         stop-color="#ff9d12"
         offset=".506"
         id="stop25" /><stop
         stop-color="#ff980e"
         offset=".526"
         id="stop26" /></radialGradient><radialGradient
       id="e-3"
       cx="-7946"
       cy="-8461"
       r="38.47"
       gradientTransform="translate(7974,8524)"
       gradientUnits="userSpaceOnUse"><stop
         stop-color="#3a8ee6"
         offset=".353"
         id="stop27" /><stop
         stop-color="#5c79f0"
         offset=".472"
         id="stop28" /><stop
         stop-color="#9059ff"
         offset=".669"
         id="stop29" /><stop
         stop-color="#c139e6"
         offset="1"
         id="stop30" /></radialGradient><radialGradient
       id="f-5"
       cx="-7936"
       cy="-8492"
       r="20.4"
       gradientTransform="matrix(0.972,-0.235,0.275,1.138,10090,7834)"
       gradientUnits="userSpaceOnUse"><stop
         stop-color="#9059ff"
         stop-opacity="0"
         offset=".206"
         id="stop31" /><stop
         stop-color="#8c4ff3"
         stop-opacity=".064"
         offset=".278"
         id="stop32" /><stop
         stop-color="#7716a8"
         stop-opacity=".45"
         offset=".747"
         id="stop33" /><stop
         stop-color="#6e008b"
         stop-opacity=".6"
         offset=".975"
         id="stop34" /></radialGradient><radialGradient
       id="g-6"
       cx="-7938"
       cy="-8518"
       r="27.68"
       gradientTransform="translate(7974,8524)"
       gradientUnits="userSpaceOnUse"><stop
         stop-color="#ffe226"
         offset="0"
         id="stop35" /><stop
         stop-color="#ffdb27"
         offset=".121"
         id="stop36" /><stop
         stop-color="#ffc82a"
         offset=".295"
         id="stop37" /><stop
         stop-color="#ffa930"
         offset=".502"
         id="stop38" /><stop
         stop-color="#ff7e37"
         offset=".732"
         id="stop39" /><stop
         stop-color="#ff7139"
         offset=".792"
         id="stop40" /></radialGradient><radialGradient
       id="h-2"
       cx="-7916"
       cy="-8536"
       r="118.1"
       gradientTransform="translate(7974,8524)"
       gradientUnits="userSpaceOnUse"><stop
         stop-color="#fff44f"
         offset=".113"
         id="stop41" /><stop
         stop-color="#ff980e"
         offset=".456"
         id="stop42" /><stop
         stop-color="#ff5634"
         offset=".622"
         id="stop43" /><stop
         stop-color="#ff3647"
         offset=".716"
         id="stop44" /><stop
         stop-color="#e31587"
         offset=".904"
         id="stop45" /></radialGradient><radialGradient
       id="i-9"
       cx="-7927"
       cy="-8523"
       r="86.5"
       gradientTransform="matrix(0.105,0.995,-0.653,0.069,-4685,8470)"
       gradientUnits="userSpaceOnUse"><stop
         stop-color="#fff44f"
         offset="0"
         id="stop46" /><stop
         stop-color="#ffe847"
         offset=".06"
         id="stop47" /><stop
         stop-color="#ffc830"
         offset=".168"
         id="stop48" /><stop
         stop-color="#ff980e"
         offset=".304"
         id="stop49" /><stop
         stop-color="#ff8b16"
         offset=".356"
         id="stop50" /><stop
         stop-color="#ff672a"
         offset=".455"
         id="stop51" /><stop
         stop-color="#ff3647"
         offset=".57"
         id="stop52" /><stop
         stop-color="#e31587"
         offset=".737"
         id="stop53" /></radialGradient><radialGradient
       id="j-1"
       cx="-7938"
       cy="-8508"
       r="73.72"
       gradientTransform="translate(7974,8524)"
       gradientUnits="userSpaceOnUse"><stop
         stop-color="#fff44f"
         offset=".137"
         id="stop54" /><stop
         stop-color="#ff980e"
         offset=".48"
         id="stop55" /><stop
         stop-color="#ff5634"
         offset=".592"
         id="stop56" /><stop
         stop-color="#ff3647"
         offset=".655"
         id="stop57" /><stop
         stop-color="#e31587"
         offset=".904"
         id="stop58" /></radialGradient><radialGradient
       id="k-2"
       cx="-7919"
       cy="-8504"
       r="80.69"
       gradientTransform="translate(7974,8524)"
       gradientUnits="userSpaceOnUse"><stop
         stop-color="#fff44f"
         offset=".094"
         id="stop59" /><stop
         stop-color="#ffe141"
         offset=".231"
         id="stop60" /><stop
         stop-color="#ffaf1e"
         offset=".509"
         id="stop61" /><stop
         stop-color="#ff980e"
         offset=".626"
         id="stop62" /></radialGradient><linearGradient
       id="l-7"
       x1="70.01"
       x2="15.27"
       y1="12.06"
       y2="66.81"
       gradientTransform="translate(-1.3,-0.004086)"
       gradientUnits="userSpaceOnUse"><stop
         stop-color="#fff44f"
         stop-opacity=".8"
         offset=".167"
         id="stop63" /><stop
         stop-color="#fff44f"
         stop-opacity=".634"
         offset=".266"
         id="stop64" /><stop
         stop-color="#fff44f"
         stop-opacity=".217"
         offset=".489"
         id="stop65" /><stop
         stop-color="#fff44f"
         stop-opacity="0"
         offset=".6"
         id="stop66" /></linearGradient></defs><g
     inkscape:label="Layer 1"
     inkscape:groupmode="layer"
     id="layer1"
     transform="translate(-2.8020994,-0.49932721)"><path
       id="rect353"
       style="fill:url(#linearGradient504);stroke:#ffffff;stroke-width:0.975133;stroke-linecap:round;stroke-linejoin:round;stroke-opacity:1"
       d="M 18.289666,0.98689371 H 246.29369 c 8.31,0 15,6.68999999 15,15.00000029 v 47.401214 c 0,8.31 -6.69,15 -15,15 H 18.289666 c -8.3100001,0 -15.0000001,-6.69 -15.0000001,-15 V 15.986894 c 0,-8.3100003 6.69,-15.00000029 15.0000001,-15.00000029 z"
       inkscape:label="bg" /><text
       xml:space="preserve"
       style="font-style:normal;font-weight:normal;font-size:19.4656px;line-height:1.25;font-family:sans-serif;fill:#ffffff;fill-opacity:1;stroke:none;stroke-width:0.486642"
       x="92.612381"
       y="35.321175"
       id="text1234"
       transform="scale(1.0235478,0.97699395)"
       inkscape:label="text"><tspan
         sodipodi:role="line"
         id="tspan1232"
         style="font-style:normal;font-variant:normal;font-weight:300;font-stretch:normal;font-family:Roboto;-inkscape-font-specification:'Roboto Light';fill:#ffffff;stroke-width:0.486642"
         x="92.612381"
         y="35.321175">Available on</tspan><tspan
         sodipodi:role="line"
         style="font-style:normal;font-variant:normal;font-weight:normal;font-stretch:normal;font-family:Roboto;-inkscape-font-specification:Roboto;fill:#ffffff;stroke-width:0.486642"
         x="92.612381"
         y="60.332039"
         id="tspan1236">Firefox <tspan
   style="font-style:normal;font-variant:normal;font-weight:500;font-stretch:normal;font-family:Roboto;-inkscape-font-specification:'Roboto Medium'"
   id="tspan1635">ADD-ONS</tspan></tspan></text><title
       id="title1">Firefox Browser logo</title><g
       transform="matrix(0.72444276,0,0,0.72444276,22.286734,9.8087187)"
       id="g77"
       style="display:inline"
       inkscape:label="firefox logo"><path
         d="m 74.62,26.83 c -1.684,-4.052 -5.1,-8.427 -7.775,-9.81 a 40.27,40.27 0 0 1 3.925,11.76 l 0.007,0.065 C 66.395,17.925 58.967,13.515 52.897,3.925 52.59,3.44 52.283,2.954 51.984,2.441 51.813,2.148 51.676,1.884 51.557,1.641 a 7.053,7.053 0 0 1 -0.578,-1.535 0.1,0.1 0 0 0 -0.088,-0.1 0.138,0.138 0 0 0 -0.073,0 c -0.005,0 -0.013,0.009 -0.019,0.011 -0.006,0.002 -0.019,0.011 -0.028,0.015 l 0.015,-0.026 c -9.735,5.7 -13.04,16.25 -13.34,21.53 a 19.39,19.39 0 0 0 -10.67,4.111 11.59,11.59 0 0 0 -1,-0.758 17.97,17.97 0 0 1 -0.109,-9.473 28.7,28.7 0 0 0 -9.329,7.21 H 16.32 c -1.536,-1.947 -1.428,-8.367 -1.34,-9.708 a 6.928,6.928 0 0 0 -1.294,0.687 28.22,28.22 0 0 0 -3.788,3.245 33.84,33.84 0 0 0 -3.623,4.347 v 0.006 -0.007 a 32.73,32.73 0 0 0 -5.2,11.74 l -0.052,0.256 c -0.073,0.341 -0.336,2.049 -0.381,2.42 0,0.029 -0.006,0.056 -0.009,0.085 A 36.94,36.94 0 0 0 0.004,41.04 v 0.2 a 38.76,38.76 0 0 0 76.95,6.554 c 0.065,-0.5 0.118,-0.995 0.176,-1.5 A 39.86,39.86 0 0 0 74.616,26.824 Z M 29.95,57.17 c 0.181,0.087 0.351,0.181 0.537,0.264 l 0.027,0.017 Q 30.232,57.316 29.95,57.17 Z m 8.878,-23.38 m 31.95,-4.934 v -0.037 l 0.007,0.041 z"
         fill="url(#a)"
         id="path66"
         style="fill:url(#a-3)" /><path
         d="m 74.62,26.83 c -1.684,-4.052 -5.1,-8.427 -7.775,-9.81 a 40.27,40.27 0 0 1 3.925,11.76 v 0.037 l 0.007,0.041 a 35.1,35.1 0 0 1 -1.206,26.16 c -4.442,9.531 -15.19,19.3 -32.02,18.82 -18.18,-0.515 -34.2,-14.01 -37.19,-31.68 -0.545,-2.787 0,-4.2 0.274,-6.465 a 28.88,28.88 0 0 0 -0.623,5.348 v 0.2 a 38.76,38.76 0 0 0 76.95,6.554 c 0.065,-0.5 0.118,-0.995 0.176,-1.5 a 39.86,39.86 0 0 0 -2.514,-19.47 z"
         fill="url(#b)"
         id="path67"
         style="fill:url(#b-6)" /><path
         d="m 74.62,26.83 c -1.684,-4.052 -5.1,-8.427 -7.775,-9.81 a 40.27,40.27 0 0 1 3.925,11.76 v 0.037 l 0.007,0.041 a 35.1,35.1 0 0 1 -1.206,26.16 c -4.442,9.531 -15.19,19.3 -32.02,18.82 -18.18,-0.515 -34.2,-14.01 -37.19,-31.68 -0.545,-2.787 0,-4.2 0.274,-6.465 a 28.88,28.88 0 0 0 -0.623,5.348 v 0.2 a 38.76,38.76 0 0 0 76.95,6.554 c 0.065,-0.5 0.118,-0.995 0.176,-1.5 a 39.86,39.86 0 0 0 -2.514,-19.47 z"
         fill="url(#c)"
         id="path68"
         style="fill:url(#c-7)" /><path
         d="m 55.78,31.38 c 0.084,0.059 0.162,0.118 0.241,0.177 a 21.1,21.1 0 0 0 -3.6,-4.695 C 40.371,14.812 49.264,0.742 50.763,0.022 L 50.778,0 c -9.735,5.7 -13.04,16.25 -13.34,21.53 0.452,-0.031 0.9,-0.069 1.362,-0.069 a 19.56,19.56 0 0 1 16.98,9.917 z"
         fill="url(#d)"
         id="path69"
         style="fill:url(#d-5)" /><path
         d="m 38.82,33.79 c -0.064,0.964 -3.47,4.289 -4.661,4.289 -11.02,0 -12.81,6.667 -12.81,6.667 0.488,5.614 4.4,10.24 9.129,12.68 0.216,0.112 0.435,0.213 0.654,0.312 q 0.569,0.252 1.138,0.466 a 17.24,17.24 0 0 0 5.043,0.973 c 19.32,0.906 23.06,-23.1 9.119,-30.07 a 13.38,13.38 0 0 1 9.345,2.269 19.56,19.56 0 0 0 -16.98,-9.917 c -0.46,0 -0.91,0.038 -1.362,0.069 a 19.39,19.39 0 0 0 -10.67,4.111 c 0.591,0.5 1.258,1.168 2.663,2.553 2.63,2.591 9.375,5.275 9.39,5.59 z"
         fill="url(#e)"
         id="path70"
         style="fill:url(#e-3)" /><path
         d="m 38.82,33.79 c -0.064,0.964 -3.47,4.289 -4.661,4.289 -11.02,0 -12.81,6.667 -12.81,6.667 0.488,5.614 4.4,10.24 9.129,12.68 0.216,0.112 0.435,0.213 0.654,0.312 q 0.569,0.252 1.138,0.466 a 17.24,17.24 0 0 0 5.043,0.973 c 19.32,0.906 23.06,-23.1 9.119,-30.07 a 13.38,13.38 0 0 1 9.345,2.269 19.56,19.56 0 0 0 -16.98,-9.917 c -0.46,0 -0.91,0.038 -1.362,0.069 a 19.39,19.39 0 0 0 -10.67,4.111 c 0.591,0.5 1.258,1.168 2.663,2.553 2.63,2.591 9.375,5.275 9.39,5.59 z"
         fill="url(#f)"
         id="path71"
         style="fill:url(#f-5)" /><path
         d="m 24.96,24.36 c 0.314,0.2 0.573,0.374 0.8,0.531 a 17.97,17.97 0 0 1 -0.109,-9.473 28.7,28.7 0 0 0 -9.329,7.21 c 0.189,-0.005 5.811,-0.106 8.638,1.732 z"
         fill="url(#g)"
         id="path72"
         style="fill:url(#g-6)" /><path
         d="m 0.354,42.16 c 2.991,17.67 19.01,31.17 37.19,31.68 16.83,0.476 27.58,-9.294 32.02,-18.82 A 35.1,35.1 0 0 0 70.77,28.86 v -0.037 c 0,-0.029 -0.006,-0.046 0,-0.037 l 0.007,0.065 c 1.375,8.977 -3.191,17.67 -10.33,23.56 l -0.022,0.05 c -13.91,11.33 -27.22,6.834 -29.91,5 Q 30.233,57.326 29.951,57.18 C 21.842,53.304 18.491,45.92 19.211,39.58 a 9.953,9.953 0 0 1 -9.181,-5.775 14.62,14.62 0 0 1 14.25,-0.572 19.3,19.3 0 0 0 14.55,0.572 c -0.015,-0.315 -6.76,-3 -9.39,-5.59 -1.405,-1.385 -2.072,-2.052 -2.663,-2.553 a 11.59,11.59 0 0 0 -1,-0.758 c -0.23,-0.157 -0.489,-0.327 -0.8,-0.531 -2.827,-1.838 -8.449,-1.737 -8.635,-1.732 h -0.018 c -1.536,-1.947 -1.428,-8.367 -1.34,-9.708 A 6.928,6.928 0 0 0 13.69,13.62 28.22,28.22 0 0 0 9.902,16.865 33.84,33.84 0 0 0 6.264,21.202 v 0.006 -0.007 a 32.73,32.73 0 0 0 -5.2,11.74 C 1.045,33.02 -0.332,39.04 0.347,42.162 Z"
         fill="url(#h)"
         id="path73"
         style="fill:url(#h-2)" /><path
         d="m 52.42,26.86 a 21.1,21.1 0 0 1 3.6,4.7 c 0.213,0.161 0.412,0.321 0.581,0.476 8.787,8.1 4.183,19.55 3.84,20.36 7.138,-5.881 11.7,-14.58 10.33,-23.56 C 66.387,17.906 58.951,13.496 52.891,3.906 52.584,3.421 52.277,2.935 51.978,2.422 51.807,2.129 51.67,1.865 51.551,1.622 a 7.053,7.053 0 0 1 -0.578,-1.535 0.1,0.1 0 0 0 -0.088,-0.1 0.138,0.138 0 0 0 -0.073,0 c -0.005,0 -0.013,0.009 -0.019,0.011 -0.006,0.002 -0.019,0.011 -0.028,0.015 -1.499,0.711 -10.39,14.79 1.66,26.83 z"
         fill="url(#i)"
         id="path74"
         style="fill:url(#i-9)" /><path
         d="M 56.6,32.04 C 56.431,31.885 56.232,31.725 56.019,31.564 55.94,31.505 55.862,31.446 55.778,31.387 a 13.38,13.38 0 0 0 -9.345,-2.269 c 13.94,6.97 10.2,30.97 -9.119,30.07 a 17.24,17.24 0 0 1 -5.043,-0.973 q -0.569,-0.213 -1.138,-0.466 c -0.219,-0.1 -0.438,-0.2 -0.654,-0.312 l 0.027,0.017 c 2.694,1.839 16,6.332 29.91,-5 l 0.022,-0.05 c 0.347,-0.81 4.951,-12.26 -3.84,-20.36 z"
         fill="url(#j)"
         id="path75"
         style="fill:url(#j-1)" /><path
         d="m 21.35,44.74 c 0,0 1.789,-6.667 12.81,-6.667 1.191,0 4.6,-3.325 4.661,-4.289 a 19.3,19.3 0 0 1 -14.55,-0.572 14.62,14.62 0 0 0 -14.25,0.572 9.953,9.953 0 0 0 9.181,5.775 c -0.718,6.337 2.632,13.72 10.74,17.6 0.181,0.087 0.351,0.181 0.537,0.264 -4.733,-2.445 -8.641,-7.069 -9.129,-12.68 z"
         fill="url(#k)"
         id="path76"
         style="fill:url(#k-2)" /><path
         d="m 74.62,26.83 c -1.684,-4.052 -5.1,-8.427 -7.775,-9.81 a 40.27,40.27 0 0 1 3.925,11.76 l 0.007,0.065 C 66.395,17.925 58.967,13.515 52.897,3.925 52.59,3.44 52.283,2.954 51.984,2.441 51.813,2.148 51.676,1.884 51.557,1.641 a 7.053,7.053 0 0 1 -0.578,-1.535 0.1,0.1 0 0 0 -0.088,-0.1 0.138,0.138 0 0 0 -0.073,0 c -0.005,0 -0.013,0.009 -0.019,0.011 -0.006,0.002 -0.019,0.011 -0.028,0.015 l 0.015,-0.026 c -9.735,5.7 -13.04,16.25 -13.34,21.53 0.452,-0.031 0.9,-0.069 1.362,-0.069 a 19.56,19.56 0 0 1 16.98,9.917 13.38,13.38 0 0 0 -9.345,-2.269 c 13.94,6.97 10.2,30.97 -9.119,30.07 a 17.24,17.24 0 0 1 -5.043,-0.973 q -0.569,-0.213 -1.138,-0.466 c -0.219,-0.1 -0.438,-0.2 -0.654,-0.312 l 0.027,0.017 Q 30.234,57.316 29.952,57.17 c 0.181,0.087 0.351,0.181 0.537,0.264 -4.733,-2.446 -8.641,-7.07 -9.129,-12.68 0,0 1.789,-6.667 12.81,-6.667 1.191,0 4.6,-3.325 4.661,-4.289 -0.015,-0.315 -6.76,-3 -9.39,-5.59 -1.405,-1.385 -2.072,-2.052 -2.663,-2.553 a 11.59,11.59 0 0 0 -1,-0.758 17.97,17.97 0 0 1 -0.109,-9.473 28.7,28.7 0 0 0 -9.329,7.21 h -0.018 c -1.536,-1.947 -1.428,-8.367 -1.34,-9.708 A 6.928,6.928 0 0 0 13.688,13.613 28.22,28.22 0 0 0 9.9,16.858 33.84,33.84 0 0 0 6.277,21.205 v 0.006 -0.007 a 32.73,32.73 0 0 0 -5.2,11.74 L 1.025,33.2 c -0.073,0.341 -0.4,2.073 -0.447,2.445 a 45.09,45.09 0 0 0 -0.572,5.403 v 0.2 a 38.76,38.76 0 0 0 76.95,6.554 c 0.065,-0.5 0.118,-0.995 0.176,-1.5 a 39.86,39.86 0 0 0 -2.514,-19.47 z m -3.845,1.991 0.007,0.041 z"
         fill="url(#l)"
         id="path77"
         style="fill:url(#l-7)" /></g></g></svg>
