<?xml version="1.0" encoding="UTF-8" standalone="no"?>
<!-- Created with Inkscape (http://www.inkscape.org/) -->

<svg
   width="978.81885"
   height="296.22556"
   viewBox="0 0 258.97915 78.376343"
   version="1.1"
   id="svg5"
   xml:space="preserve"
   sodipodi:docname="promo-banner.svg"
   inkscape:version="1.2.2 (b0a8486541, 2022-12-01)"
   inkscape:export-filename="promo.png"
   inkscape:export-xdpi="98.077393"
   inkscape:export-ydpi="98.077393"
   xmlns:inkscape="http://www.inkscape.org/namespaces/inkscape"
   xmlns:sodipodi="http://sodipodi.sourceforge.net/DTD/sodipodi-0.dtd"
   xmlns:xlink="http://www.w3.org/1999/xlink"
   xmlns="http://www.w3.org/2000/svg"
   xmlns:svg="http://www.w3.org/2000/svg"><sodipodi:namedview
     id="namedview7"
     pagecolor="#505050"
     bordercolor="#eeeeee"
     borderopacity="1"
     inkscape:showpageshadow="0"
     inkscape:pageopacity="0"
     inkscape:pagecheckerboard="0"
     inkscape:deskcolor="#505050"
     inkscape:document-units="mm"
     showgrid="false"
     inkscape:zoom="0.93607328"
     inkscape:cx="425.71453"
     inkscape:cy="132.46826"
     inkscape:window-width="1920"
     inkscape:window-height="1022"
     inkscape:window-x="0"
     inkscape:window-y="0"
     inkscape:window-maximized="1"
     inkscape:current-layer="layer1" /><defs
     id="defs2"><linearGradient
       inkscape:collect="always"
       id="linearGradient502"><stop
         style="stop-color:#190e2d;stop-opacity:1"
         offset="0"
         id="stop498" /><stop
         style="stop-color:#2b184f;stop-opacity:1"
         offset="1"
         id="stop500" /></linearGradient><style
       id="style132">.a{fill:#d53;}.b{fill:#fff;}.c{fill:#ddd;}.d{fill:#fc0;}.e{fill:#6b5;}.f{fill:#4a4;}.g{fill:#148;}</style><linearGradient
       inkscape:collect="always"
       xlink:href="#linearGradient502"
       id="linearGradient504"
       x1="2.0345053e-05"
       y1="39.6875"
       x2="264.58334"
       y2="39.6875"
       gradientUnits="userSpaceOnUse"
       gradientTransform="matrix(0.97513339,0,0,0.97513339,3.2896461,0.98689374)" /><radialGradient
       id="a"
       cx="-1186.91"
       cy="-517.67603"
       r="90.779999"
       gradientTransform="matrix(0.72462954,0,0,0.72462954,932.38855,398.48311)"
       gradientUnits="userSpaceOnUse"><stop
         offset="0"
         stop-color="#fff36e"
         id="stop1289" /><stop
         offset=".5"
         stop-color="#fc4055"
         id="stop1291" /><stop
         offset="1"
         stop-color="#e31587"
         id="stop1293" /></radialGradient><radialGradient
       id="b"
       cx="-1251.812"
       cy="-513.92102"
       r="53.726002"
       gradientTransform="matrix(0.72462954,0,0,0.72462954,932.38855,398.48311)"
       gradientUnits="userSpaceOnUse"><stop
         offset=".001"
         stop-color="#c60084"
         id="stop1296" /><stop
         offset="1"
         stop-color="#fc4055"
         stop-opacity="0"
         id="stop1298" /></radialGradient><radialGradient
       id="c"
       cx="-1179.15"
       cy="-522.84198"
       r="106.599"
       gradientTransform="matrix(0.72462954,0,0,0.72462954,932.38855,398.48311)"
       gradientUnits="userSpaceOnUse"><stop
         offset="0"
         stop-color="#ffde67"
         stop-opacity=".6"
         id="stop1301" /><stop
         offset=".093"
         stop-color="#ffd966"
         stop-opacity=".581"
         id="stop1303" /><stop
         offset=".203"
         stop-color="#ffca65"
         stop-opacity=".525"
         id="stop1305" /><stop
         offset=".321"
         stop-color="#feb262"
         stop-opacity=".432"
         id="stop1307" /><stop
         offset=".446"
         stop-color="#fe8f5e"
         stop-opacity=".302"
         id="stop1309" /><stop
         offset=".573"
         stop-color="#fd6459"
         stop-opacity=".137"
         id="stop1311" /><stop
         offset=".664"
         stop-color="#fc4055"
         stop-opacity="0"
         id="stop1313" /></radialGradient><radialGradient
       id="d"
       cx="42.285"
       cy="44.499001"
       r="137.521"
       gradientTransform="matrix(0.72462954,0,0,0.72462954,20.485021,11.417871)"
       gradientUnits="userSpaceOnUse"><stop
         offset=".153"
         stop-color="#810220"
         id="stop1316" /><stop
         offset=".167"
         stop-color="#920b27"
         stop-opacity=".861"
         id="stop1318" /><stop
         offset=".216"
         stop-color="#cb2740"
         stop-opacity=".398"
         id="stop1320" /><stop
         offset=".253"
         stop-color="#ef394f"
         stop-opacity=".11"
         id="stop1322" /><stop
         offset=".272"
         stop-color="#fc4055"
         stop-opacity="0"
         id="stop1324" /></radialGradient><radialGradient
       id="e"
       cx="31.878"
       cy="42.77"
       r="137.521"
       gradientTransform="matrix(0.72462954,0,0,0.72462954,20.485021,11.417871)"
       gradientUnits="userSpaceOnUse"><stop
         offset=".113"
         stop-color="#810220"
         id="stop1327" /><stop
         offset=".133"
         stop-color="#920b27"
         stop-opacity=".861"
         id="stop1329" /><stop
         offset=".204"
         stop-color="#cb2740"
         stop-opacity=".398"
         id="stop1331" /><stop
         offset=".257"
         stop-color="#ef394f"
         stop-opacity=".11"
         id="stop1333" /><stop
         offset=".284"
         stop-color="#fc4055"
         stop-opacity="0"
         id="stop1335" /></radialGradient><linearGradient
       id="f"
       x1="-1212.61"
       y1="-525.10303"
       x2="-1189.052"
       y2="-484.29901"
       gradientTransform="matrix(0.72462954,0,0,0.72462954,932.38855,397.63456)"
       gradientUnits="userSpaceOnUse"><stop
         offset="0"
         stop-color="#ffbd4f"
         id="stop1338" /><stop
         offset=".508"
         stop-color="#ff9640"
         stop-opacity="0"
         id="stop1340" /></linearGradient><radialGradient
       id="g"
       cx="-1255.933"
       cy="-77.394997"
       r="88.862999"
       gradientTransform="matrix(0.69491973,0,0,0.69636899,943.5877,74.143977)"
       gradientUnits="userSpaceOnUse"><stop
         offset="0"
         stop-color="#ff9640"
         id="stop1343" /><stop
         offset=".8"
         stop-color="#fc4055"
         id="stop1345" /></radialGradient><radialGradient
       id="h"
       cx="-1255.933"
       cy="-77.394997"
       r="88.862999"
       gradientTransform="matrix(0.69491973,0,0,0.69636899,943.5877,74.143977)"
       gradientUnits="userSpaceOnUse"><stop
         offset=".084"
         stop-color="#ffde67"
         id="stop1348" /><stop
         offset=".147"
         stop-color="#ffdc66"
         stop-opacity=".968"
         id="stop1350" /><stop
         offset=".246"
         stop-color="#ffd562"
         stop-opacity=".879"
         id="stop1352" /><stop
         offset=".369"
         stop-color="#ffcb5d"
         stop-opacity=".734"
         id="stop1354" /><stop
         offset=".511"
         stop-color="#ffbc55"
         stop-opacity=".533"
         id="stop1356" /><stop
         offset=".667"
         stop-color="#ffaa4b"
         stop-opacity=".28"
         id="stop1358" /><stop
         offset=".822"
         stop-color="#ff9640"
         stop-opacity="0"
         id="stop1360" /></radialGradient><radialGradient
       id="i"
       cx="49.941002"
       cy="38.653999"
       r="41.790001"
       gradientTransform="matrix(0.1789835,0.70361527,-0.73260048,0.18767905,76.050337,-2.8979093)"
       gradientUnits="userSpaceOnUse"><stop
         offset=".363"
         stop-color="#fc4055"
         id="stop1363" /><stop
         offset=".443"
         stop-color="#fd604d"
         stop-opacity=".633"
         id="stop1365" /><stop
         offset=".545"
         stop-color="#fe8644"
         stop-opacity=".181"
         id="stop1367" /><stop
         offset=".59"
         stop-color="#ff9640"
         stop-opacity="0"
         id="stop1369" /></radialGradient><radialGradient
       id="j"
       cx="42.737"
       cy="42.193001"
       r="41.790001"
       gradientTransform="matrix(0.72462954,0,0,0.72462954,20.485021,11.417871)"
       gradientUnits="userSpaceOnUse"><stop
         offset=".216"
         stop-color="#fc4055"
         stop-opacity=".8"
         id="stop1372" /><stop
         offset=".267"
         stop-color="#fd5251"
         stop-opacity=".633"
         id="stop1374" /><stop
         offset=".41"
         stop-color="#fe8345"
         stop-opacity=".181"
         id="stop1376" /><stop
         offset=".474"
         stop-color="#ff9640"
         stop-opacity="0"
         id="stop1378" /></radialGradient><radialGradient
       id="k"
       cx="-1238.198"
       cy="-87.432999"
       r="150.19501"
       gradientTransform="matrix(0.69491973,0,0,0.69636899,943.5877,74.143977)"
       gradientUnits="userSpaceOnUse"><stop
         offset=".054"
         stop-color="#fff36e"
         id="stop1381" /><stop
         offset=".457"
         stop-color="#ff9640"
         id="stop1383" /><stop
         offset=".639"
         stop-color="#ff9640"
         id="stop1385" /></radialGradient><linearGradient
       id="l"
       x1="59.051998"
       y1="7.0830002"
       x2="18.155001"
       y2="77.919998"
       gradientUnits="userSpaceOnUse"
       gradientTransform="matrix(0.72462954,0,0,0.72462954,20.485021,11.48671)"><stop
         offset="0"
         stop-color="#fff36e"
         stop-opacity=".8"
         id="stop1388" /><stop
         offset=".094"
         stop-color="#fff36e"
         stop-opacity=".699"
         id="stop1390" /><stop
         offset=".752"
         stop-color="#fff36e"
         stop-opacity="0"
         id="stop1392" /></linearGradient><linearGradient
       id="m"
       x1="40.584999"
       y1="-0.67000002"
       x2="62.299999"
       y2="62.202999"
       gradientUnits="userSpaceOnUse"
       gradientTransform="matrix(0.72462954,0,0,0.72462954,20.485021,11.48671)"><stop
         offset="0"
         stop-color="#b833e1"
         id="stop1395" /><stop
         offset=".371"
         stop-color="#9059ff"
         id="stop1397" /><stop
         offset=".614"
         stop-color="#5b6df8"
         id="stop1399" /><stop
         offset="1"
         stop-color="#0090ed"
         id="stop1401" /></linearGradient><linearGradient
       id="n"
       x1="-1230.731"
       y1="-532.56598"
       x2="-1190.37"
       y2="-492.20499"
       gradientTransform="matrix(0.72462954,0,0,0.72462954,932.38855,397.63456)"
       gradientUnits="userSpaceOnUse"><stop
         offset=".805"
         stop-color="#722291"
         stop-opacity="0"
         id="stop1404" /><stop
         offset="1"
         stop-color="#592acb"
         stop-opacity=".5"
         id="stop1406" /></linearGradient></defs><g
     inkscape:label="Layer 1"
     inkscape:groupmode="layer"
     id="layer1"
     transform="translate(-2.8020994,-0.49932721)"><path
       id="rect353"
       style="fill:url(#linearGradient504);stroke:#ffffff;stroke-width:0.975133;stroke-linecap:round;stroke-linejoin:round;stroke-opacity:1"
       d="M 18.289666,0.98689371 H 246.29369 c 8.31,0 15,6.68999999 15,15.00000029 v 47.401214 c 0,8.31 -6.69,15 -15,15 H 18.289666 c -8.3100001,0 -15.0000001,-6.69 -15.0000001,-15 V 15.986894 c 0,-8.3100003 6.69,-15.00000029 15.0000001,-15.00000029 z" /><g
       id="g1538"
       transform="translate(0,-0.73179054)"><path
         d="M 72.617768,22.863395 A 28.601128,28.601128 0 0 0 50.620914,11.493233 c -6.730359,-0.134775 -11.379583,1.887658 -14.009987,3.513728 3.519526,-2.041282 8.612946,-3.199239 13.072317,-3.141994 11.470885,0.144936 23.791038,7.957159 25.620727,22.03816 2.101424,16.163584 -9.157145,29.654013 -24.994647,29.695316 -17.423718,0.0442 -28.021425,-15.38316 -25.251166,-29.240249 a 14.300564,14.300564 0 0 1 0.299271,-2.019544 27.401868,27.401868 0 0 1 3.038372,-10.157857 c -2.006499,1.038394 -4.561543,4.322417 -5.822399,7.364412 a 29.967057,29.967057 0 0 0 -1.882587,14.622296 c 0.04347,0.375358 0.08261,0.749993 0.131882,1.122452 A 29.030109,29.030109 0 1 0 72.617768,22.863395 Z m -45.941512,2.526783 z"
         fill="url(#a)"
         id="path1411"
         style="fill:url(#a);stroke-width:0.724628" /><path
         d="M 72.617768,22.863395 A 28.601128,28.601128 0 0 0 50.620914,11.493233 c -6.730359,-0.134775 -11.379583,1.887658 -14.009987,3.513728 3.519526,-2.041282 8.612946,-3.199239 13.072317,-3.141994 11.470885,0.144936 23.791038,7.957159 25.620727,22.03816 2.101424,16.163584 -9.157145,29.654013 -24.994647,29.695316 -17.423718,0.0442 -28.021425,-15.38316 -25.251166,-29.240249 a 14.300564,14.300564 0 0 1 0.299271,-2.019544 27.401868,27.401868 0 0 1 3.038372,-10.157857 c -2.006499,1.038394 -4.561543,4.322417 -5.822399,7.364412 a 29.967057,29.967057 0 0 0 -1.882587,14.622296 c 0.04347,0.375358 0.08261,0.749993 0.131882,1.122452 A 29.030109,29.030109 0 1 0 72.617768,22.863395 Z m -45.941512,2.526783 z"
         fill="url(#b)"
         opacity="0.67"
         id="path1413"
         style="fill:url(#b);stroke-width:0.724628" /><path
         d="M 72.617768,22.863395 A 28.601128,28.601128 0 0 0 50.620914,11.493233 c -6.730359,-0.134775 -11.379583,1.887658 -14.009987,3.513728 3.519526,-2.041282 8.612946,-3.199239 13.072317,-3.141994 11.470885,0.144936 23.791038,7.957159 25.620727,22.03816 2.101424,16.163584 -9.157145,29.654013 -24.994647,29.695316 -17.423718,0.0442 -28.021425,-15.38316 -25.251166,-29.240249 a 14.300564,14.300564 0 0 1 0.299271,-2.019544 27.401868,27.401868 0 0 1 3.038372,-10.157857 c -2.006499,1.038394 -4.561543,4.322417 -5.822399,7.364412 a 29.967057,29.967057 0 0 0 -1.882587,14.622296 c 0.04347,0.375358 0.08261,0.749993 0.131882,1.122452 A 29.030109,29.030109 0 1 0 72.617768,22.863395 Z m -45.941512,2.526783 z"
         fill="url(#c)"
         id="path1415"
         style="fill:url(#c);stroke-width:0.724628" /><path
         d="M 72.617768,22.863395 A 28.601128,28.601128 0 0 0 50.620914,11.493233 c -6.730359,-0.134775 -11.379583,1.887658 -14.009987,3.513728 3.519526,-2.041282 8.612946,-3.199239 13.072317,-3.141994 11.470885,0.144936 23.791038,7.957159 25.620727,22.03816 2.101424,16.163584 -9.157145,29.654013 -24.994647,29.695316 -17.423718,0.0442 -28.021425,-15.38316 -25.251166,-29.240249 a 14.300564,14.300564 0 0 1 0.299271,-2.019544 27.401868,27.401868 0 0 1 3.038372,-10.157857 c -2.006499,1.038394 -4.561543,4.322417 -5.822399,7.364412 a 29.967057,29.967057 0 0 0 -1.882587,14.622296 c 0.04347,0.375358 0.08261,0.749993 0.131882,1.122452 A 29.030109,29.030109 0 1 0 72.617768,22.863395 Z m -45.941512,2.526783 z"
         fill="url(#d)"
         id="path1417"
         style="fill:url(#d);stroke-width:0.724628" /><path
         d="M 72.617768,22.863395 A 28.601128,28.601128 0 0 0 50.620914,11.493233 c -6.730359,-0.134775 -11.379583,1.887658 -14.009987,3.513728 3.519526,-2.041282 8.612946,-3.199239 13.072317,-3.141994 11.470885,0.144936 23.791038,7.957159 25.620727,22.03816 2.101424,16.163584 -9.157145,29.654013 -24.994647,29.695316 -17.423718,0.0442 -28.021425,-15.38316 -25.251166,-29.240249 a 14.300564,14.300564 0 0 1 0.299271,-2.019544 27.401868,27.401868 0 0 1 3.038372,-10.157857 c -2.006499,1.038394 -4.561543,4.322417 -5.822399,7.364412 a 29.967057,29.967057 0 0 0 -1.882587,14.622296 c 0.04347,0.375358 0.08261,0.749993 0.131882,1.122452 A 29.030109,29.030109 0 1 0 72.617768,22.863395 Z m -45.941512,2.526783 z"
         fill="url(#e)"
         id="path1419"
         style="fill:url(#e);stroke-width:0.724628" /><path
         d="m 75.303971,33.903127 a 29.717057,29.717057 0 0 1 0.217403,5.251389 q 1.442014,-0.217402 2.889096,-0.384053 A 28.992428,28.992428 0 0 0 72.617768,22.863395 28.601128,28.601128 0 0 0 50.620914,11.493233 c -6.730359,-0.134775 -11.379583,1.887658 -14.009987,3.513728 3.519526,-2.041282 8.612946,-3.199239 13.072317,-3.141994 11.470885,0.146387 23.791038,7.954984 25.620727,22.03816 z"
         fill="url(#f)"
         id="path1421"
         style="fill:url(#f);stroke-width:0.724628" /><path
         d="M 76.00976,33.099512 C 74.378619,18.383736 61.254853,11.769316 49.683244,11.864967 c -4.460094,0.03623 -9.552791,1.100712 -13.072317,3.141994 a 14.275203,14.275203 0 0 0 -2.579682,1.956499 c 0.09348,-0.07753 0.372461,-0.307242 0.834773,-0.624631 l 0.04565,-0.03117 0.04058,-0.02753 a 19.315,19.315 0 0 1 5.573845,-2.588375 31.521386,31.521386 0 0 1 9.552789,-1.118106 24.096831,24.096831 0 0 1 22.644674,23.183075 C 72.989496,45.326914 65.156982,52.957262 56.128098,53.399286 49.561505,53.721022 43.374621,50.54352 40.352914,44.18707 A 15.709969,15.709969 0 0 1 38.92974,39.597992 c -1.431865,-9.673803 5.064437,-17.92371 11.021617,-19.966443 -3.213732,-2.807214 -11.266541,-2.616636 -17.259952,1.792734 -4.315893,3.175326 -7.115862,8.006434 -8.043387,13.767964 a 23.872921,23.872921 0 0 0 1.695632,13.043329 25.579424,25.579424 0 0 0 21.803378,15.538233 q 1.078975,0.0826 2.162296,0.08189 c 19.175147,0 27.493895,-14.555633 25.700436,-30.756174 z"
         fill="url(#g)"
         id="path1423"
         style="fill:url(#g);stroke-width:0.724628" /><path
         d="M 76.00976,33.099512 C 74.378619,18.383736 61.254853,11.769316 49.683244,11.864967 c -4.460094,0.03623 -9.552791,1.100712 -13.072317,3.141994 a 14.275203,14.275203 0 0 0 -2.579682,1.956499 c 0.09348,-0.07753 0.372461,-0.307242 0.834773,-0.624631 l 0.04565,-0.03117 0.04058,-0.02753 a 19.315,19.315 0 0 1 5.573845,-2.588375 31.521386,31.521386 0 0 1 9.552789,-1.118106 24.096831,24.096831 0 0 1 22.644674,23.183075 C 72.989496,45.326914 65.156982,52.957262 56.128098,53.399286 49.561505,53.721022 43.374621,50.54352 40.352914,44.18707 A 15.709969,15.709969 0 0 1 38.92974,39.597992 c -1.431865,-9.673803 5.064437,-17.92371 11.021617,-19.966443 -3.213732,-2.807214 -11.266541,-2.616636 -17.259952,1.792734 -4.315893,3.175326 -7.115862,8.006434 -8.043387,13.767964 a 23.872921,23.872921 0 0 0 1.695632,13.043329 25.579424,25.579424 0 0 0 21.803378,15.538233 q 1.078975,0.0826 2.162296,0.08189 c 19.175147,0 27.493895,-14.555633 25.700436,-30.756174 z"
         fill="url(#h)"
         id="path1425"
         style="fill:url(#h);stroke-width:0.724628" /><path
         d="M 76.00976,33.099512 C 74.378619,18.383736 61.254853,11.769316 49.683244,11.864967 c -4.460094,0.03623 -9.552791,1.100712 -13.072317,3.141994 a 14.275203,14.275203 0 0 0 -2.579682,1.956499 c 0.09348,-0.07753 0.372461,-0.307242 0.834773,-0.624631 l 0.04565,-0.03117 0.04058,-0.02753 a 19.315,19.315 0 0 1 5.573845,-2.588375 31.521386,31.521386 0 0 1 9.552789,-1.118106 24.096831,24.096831 0 0 1 22.644674,23.183075 C 72.989496,45.326914 65.156982,52.957262 56.128098,53.399286 49.561505,53.721022 43.374621,50.54352 40.352914,44.18707 A 15.709969,15.709969 0 0 1 38.92974,39.597992 c -1.431865,-9.673803 5.064437,-17.92371 11.021617,-19.966443 -3.213732,-2.807214 -11.266541,-2.616636 -17.259952,1.792734 -4.315893,3.175326 -7.115862,8.006434 -8.043387,13.767964 a 23.872921,23.872921 0 0 0 1.695632,13.043329 25.579424,25.579424 0 0 0 21.803378,15.538233 q 1.078975,0.0826 2.162296,0.08189 c 19.175147,0 27.493895,-14.555633 25.700436,-30.756174 z"
         style="mix-blend-mode:multiply;fill:url(#i);stroke-width:0.724628"
         opacity="0.53"
         fill="url(#i)"
         id="path1427" /><path
         d="M 76.00976,33.099512 C 74.378619,18.383736 61.254853,11.769316 49.683244,11.864967 c -4.460094,0.03623 -9.552791,1.100712 -13.072317,3.141994 a 14.275203,14.275203 0 0 0 -2.579682,1.956499 c 0.09348,-0.07753 0.372461,-0.307242 0.834773,-0.624631 l 0.04565,-0.03117 0.04058,-0.02753 a 19.315,19.315 0 0 1 5.573845,-2.588375 31.521386,31.521386 0 0 1 9.552789,-1.118106 24.096831,24.096831 0 0 1 22.644674,23.183075 C 72.989496,45.326914 65.156982,52.957262 56.128098,53.399286 49.561505,53.721022 43.374621,50.54352 40.352914,44.18707 A 15.709969,15.709969 0 0 1 38.92974,39.597992 c -1.431865,-9.673803 5.064437,-17.92371 11.021617,-19.966443 -3.213732,-2.807214 -11.266541,-2.616636 -17.259952,1.792734 -4.315893,3.175326 -7.115862,8.006434 -8.043387,13.767964 a 23.872921,23.872921 0 0 0 1.695632,13.043329 25.579424,25.579424 0 0 0 21.803378,15.538233 q 1.078975,0.0826 2.162296,0.08189 c 19.175147,0 27.493895,-14.555633 25.700436,-30.756174 z"
         style="mix-blend-mode:multiply;fill:url(#j);stroke-width:0.724628"
         opacity="0.53"
         fill="url(#j)"
         id="path1429" /><path
         d="M 56.128098,53.399284 C 68.519265,52.645667 73.823552,42.384913 74.156158,35.106011 74.67499,23.732951 67.927966,11.472218 50.07889,12.573653 a 31.521386,31.521386 0 0 0 -9.552791,1.120278 20.909186,20.909186 0 0 0 -5.573849,2.588378 l -0.04058,0.02753 -0.04565,0.03117 q -0.415936,0.289856 -0.813758,0.610139 a 24.262047,24.262047 0 0 1 15.200551,-2.852145 c 10.247713,1.344914 19.617172,9.316563 19.617172,19.835286 0,8.093387 -6.254276,14.275202 -13.578107,13.831005 -10.880314,-0.652167 -13.623037,-11.811461 -7.962954,-16.633148 -1.526072,-0.328256 -4.394155,0.315215 -6.391233,3.300688 -1.79201,2.681131 -1.69056,6.818763 -0.584776,9.754237 a 16.027357,16.027357 0 0 0 15.775184,9.212217 z"
         fill="url(#k)"
         id="path1431"
         style="fill:url(#k);stroke-width:0.724628" /><path
         d="m 72.617768,22.863395 a 28.954749,28.954749 0 0 0 -2.52316,-2.885475 22.711339,22.711339 0 0 0 -2.302148,-2.120266 17.675889,17.675889 0 0 1 1.339839,1.297085 16.279527,16.279527 0 0 1 3.537642,5.901385 c 1.513752,4.58618 1.415203,10.325971 -1.475343,14.83389 a 17.057056,17.057056 0 0 1 -15.112152,7.894839 c -0.261578,0 -0.525356,0 -0.790569,-0.01945 C 44.411563,47.113122 41.66884,35.953828 47.329646,31.132142 c -1.526795,-0.328257 -4.394878,0.315215 -6.391956,3.300688 -1.79201,2.68113 -1.69056,6.818763 -0.584776,9.754237 A 15.709244,15.709244 0 0 1 38.930466,39.597989 C 37.497875,29.924186 43.994177,21.674279 49.951357,19.631546 46.737625,16.824332 38.684816,17.014911 32.691405,21.42428 a 20.177309,20.177309 0 0 0 -7.309339,10.579592 27.898238,27.898238 0 0 1 3.013735,-9.820904 c -2.006499,1.038395 -4.561543,4.322417 -5.822399,7.364408 a 29.967057,29.967057 0 0 0 -1.882587,14.620125 c 0.04347,0.375358 0.08261,0.749993 0.131882,1.122452 A 29.030109,29.030109 0 1 0 72.617768,22.863395 Z"
         fill="url(#l)"
         id="path1433"
         style="fill:url(#l);stroke-width:0.724628" /><path
         d="m 72.669941,25.056124 a 16.273731,16.273731 0 0 0 -3.537642,-5.901385 21.901204,21.901204 0 0 0 -6.589778,-4.705017 29.360539,29.360539 0 0 0 -6.47819,-2.296353 28.864893,28.864893 0 0 0 -12.003487,-0.07247 c -4.11807,0.869556 -7.739044,2.651419 -10.029599,4.87893 a 23.260608,23.260608 0 0 1 5.819501,-2.318812 24.322191,24.322191 0 0 1 22.588876,5.869499 19.572245,19.572245 0 0 1 3.136921,3.840535 c 3.547061,5.767327 3.211557,13.017971 0.445648,17.294009 -2.054325,3.176775 -6.454277,6.15935 -10.559304,6.124568 a 17.122272,17.122272 0 0 0 15.731711,-7.877445 c 2.890546,-4.510096 2.989095,-10.249885 1.475343,-14.836066 z"
         fill="url(#m)"
         id="path1435"
         style="fill:url(#m);stroke-width:0.724628" /><path
         d="m 72.669941,25.056124 a 16.273731,16.273731 0 0 0 -3.537642,-5.901385 21.901204,21.901204 0 0 0 -6.589778,-4.705017 29.360539,29.360539 0 0 0 -6.47819,-2.296353 28.864893,28.864893 0 0 0 -12.003487,-0.07247 c -4.11807,0.869556 -7.739044,2.651419 -10.029599,4.87893 a 23.260608,23.260608 0 0 1 5.819501,-2.318812 24.322191,24.322191 0 0 1 22.588876,5.869499 19.572245,19.572245 0 0 1 3.136921,3.840535 c 3.547061,5.767327 3.211557,13.017971 0.445648,17.294009 -2.054325,3.176775 -6.454277,6.15935 -10.559304,6.124568 a 17.122272,17.122272 0 0 0 15.731711,-7.877445 c 2.890546,-4.510096 2.989095,-10.249885 1.475343,-14.836066 z"
         fill="url(#n)"
         id="path1437"
         style="fill:url(#n);stroke-width:0.724628" /></g><text
       xml:space="preserve"
       style="font-style:normal;font-weight:normal;font-size:19.4656px;line-height:1.25;font-family:sans-serif;fill:#ffffff;fill-opacity:1;stroke:none;stroke-width:0.486642"
       x="92.612381"
       y="35.321175"
       id="text1234"
       transform="scale(1.0235478,0.97699395)"><tspan
         sodipodi:role="line"
         id="tspan1232"
         style="font-style:normal;font-variant:normal;font-weight:300;font-stretch:normal;font-family:Roboto;-inkscape-font-specification:'Roboto Light';fill:#ffffff;stroke-width:0.486642"
         x="92.612381"
         y="35.321175">Available on</tspan><tspan
         sodipodi:role="line"
         style="font-style:normal;font-variant:normal;font-weight:normal;font-stretch:normal;font-family:Roboto;-inkscape-font-specification:Roboto;fill:#ffffff;stroke-width:0.486642"
         x="92.612381"
         y="60.332039"
         id="tspan1236">Firefox <tspan
   style="font-style:normal;font-variant:normal;font-weight:500;font-stretch:normal;font-family:Roboto;-inkscape-font-specification:'Roboto Medium'"
   id="tspan1635">ADD-ONS</tspan></tspan></text></g></svg>
